<?xml version="1.0" standalone="no"?>
<!DOCTYPE svg PUBLIC "-//W3C//DTD SVG 20010904//EN"
 "http://www.w3.org/TR/2001/REC-SVG-20010904/DTD/svg10.dtd">
<svg version="1.0" xmlns="http://www.w3.org/2000/svg"
 width="139.000000pt" height="300.000000pt" viewBox="0 0 139.000000 300.000000"
 preserveAspectRatio="xMidYMid meet">

<g transform="translate(0.000000,300.000000) scale(0.100000,-0.100000)"
fill="#000000" stroke="none">
<path d="M548 2907 c-156 -66 -247 -190 -256 -349 -9 -158 52 -280 182 -363
139 -88 293 -88 432 0 130 83 191 205 182 363 -8 146 -94 273 -228 336 -56 27
-78 31 -160 34 -81 2 -103 -1 -152 -21z m237 -176 c49 -22 99 -77 115 -126 20
-61 9 -148 -26 -197 -55 -78 -129 -108 -229 -94 -162 25 -232 247 -117 370 60
64 174 85 257 47z"/>
<path d="M270 2027 c-86 -24 -149 -79 -188 -165 -15 -33 -17 -100 -20 -642 -2
-395 0 -617 7 -640 13 -44 33 -56 156 -95 l100 -32 5 -166 c5 -158 6 -167 29
-191 l24 -26 308 0 307 0 26 31 c26 30 26 33 26 189 l0 158 97 33 c136 44 150
53 163 97 8 25 10 223 8 642 -3 549 -5 609 -20 643 -30 66 -76 115 -136 144
l-57 28 -395 2 c-291 2 -407 -1 -440 -10z m154 -204 c3 -21 6 -55 6 -76 0 -53
24 -105 58 -124 l28 -16 -68 -256 c-37 -141 -67 -269 -68 -285 0 -39 194 -342
232 -362 33 -17 124 -18 158 -1 33 17 230 323 230 359 0 14 -30 142 -66 284
l-66 257 30 24 c36 28 48 62 57 162 l7 73 60 -4 c47 -4 64 -10 86 -31 l27 -27
0 -567 0 -566 -100 -34 c-124 -41 -140 -49 -154 -80 -6 -14 -11 -82 -11 -163
l0 -140 -180 0 -180 0 0 149 c0 127 -3 152 -17 170 -11 13 -63 36 -133 59
l-115 39 0 565 c0 619 -3 587 60 614 16 7 49 13 71 14 40 0 42 -1 48 -37z
m356 -8 l0 -45 -85 0 c-81 0 -85 1 -85 23 0 12 -3 32 -6 45 -6 22 -5 22 85 22
l91 0 0 -45z m-26 -497 c32 -123 59 -226 60 -230 1 -9 -117 -198 -124 -198 -7
0 -125 189 -124 198 6 36 120 452 124 452 3 0 32 -100 64 -222z"/>
</g>
</svg>
