<svg class="generator__canvas" viewBox="0 0 200 200" xmlns="http://www.w3.org/2000/svg" version="1.1" xmlns:xlink="http://www.w3.org/1999/xlink" xmlns:svgjs="http://svgjs.dev/svgjs"><line x1="0" y1="0" x2="40" y2="40" transform="matrix(-0.1238678435218339,0.2171560667843532,-0.2171560667843532,-0.1238678435218339,26.82047820612374,18.134235534749614)" stroke-linecap="round" stroke-width="4" stroke="#4c4e52"></line><line x1="0" y1="40" x2="40" y2="80" transform="matrix(-0.010892460172610237,0.2497625959013641,-0.2497625959013641,-0.010892460172610237,35.203604957534054,55.65829569232933)" stroke-linecap="round" stroke-width="4" stroke="#4c4e52"></line><line x1="0" y1="80" x2="40" y2="120" transform="matrix(0.04598069884284281,0.2457351731721037,-0.2457351731721037,0.04598069884284281,43.653903340353516,90.48722665227365)" stroke-linecap="round" stroke-width="4" stroke="#4c4e52"></line><line x1="0" y1="120" x2="40" y2="160" transform="matrix(0.03551586956503804,0.24746438735510853,-0.24746438735510853,0.03551586956503804,53.93469683841443,130.0784905137925)" stroke-linecap="round" stroke-width="4" stroke="#4c4e52"></line><line x1="0" y1="160" x2="40" y2="200" transform="matrix(-0.0267094204817372,0.24856911887346295,-0.24856911887346295,-0.0267094204817372,65.27662980685807,179.83631330924345)" stroke-linecap="round" stroke-width="4" stroke="#4c4e52"></line><line x1="40" y1="0" x2="80" y2="40" transform="matrix(-0.048799023245052815,0.24519105883031053,-0.24519105883031053,-0.048799023245052815,67.83176257130938,6.264516935082424)" stroke-linecap="round" stroke-width="4" stroke="#4c4e52"></line><line x1="40" y1="40" x2="80" y2="80" transform="matrix(0.049947999051273104,0.24495958317807046,-0.24495958317807046,0.049947999051273104,71.70069504760784,42.30554506623939)" stroke-linecap="round" stroke-width="4" stroke="#4c4e52"></line><line x1="40" y1="80" x2="80" y2="120" transform="matrix(0.09727833927728387,0.23029747004136553,-0.23029747004136553,0.09727833927728387,77.19304664749953,76.45431786978969)" stroke-linecap="round" stroke-width="4" stroke="#4c4e52"></line><line x1="40" y1="120" x2="80" y2="160" transform="matrix(0.09559051729454301,0.23100314500751212,-0.23100314500751212,0.09559051729454301,86.60500926337912,112.75713887831324)" stroke-linecap="round" stroke-width="4" stroke="#4c4e52"></line><line x1="40" y1="160" x2="80" y2="200" transform="matrix(0.053844835351284724,0.2441326149984738,-0.2441326149984738,0.053844835351284724,100.7131805786482,155.6599727368603)" stroke-linecap="round" stroke-width="4" stroke="#4c4e52"></line><line x1="80" y1="0" x2="120" y2="40" transform="matrix(-0.054943711808426415,0.24388765555622652,-0.24388765555622652,-0.054943711808426415,110.37212429196717,-3.2898913194541244)" stroke-linecap="round" stroke-width="4" stroke="#4c4e52"></line><line x1="80" y1="40" x2="120" y2="80" transform="matrix(0.0165228207730836,0.24945339523386037,-0.24945339523386037,0.0165228207730836,113.31492163672326,34.06329123022895)" stroke-linecap="round" stroke-width="4" stroke="#4c4e52"></line><line x1="80" y1="80" x2="120" y2="120" transform="matrix(0.05301356106673801,0.24431447428063535,-0.24431447428063535,0.05301356106673801,119.13009132138973,70.26719646526266)" stroke-linecap="round" stroke-width="4" stroke="#4c4e52"></line><line x1="80" y1="120" x2="120" y2="160" transform="matrix(0.05528905488177163,0.24380959868364585,-0.24380959868364585,0.05528905488177163,128.60443832753325,107.87857244818738)" stroke-linecap="round" stroke-width="4" stroke="#4c4e52"></line><line x1="80" y1="160" x2="120" y2="200" transform="matrix(0.025703610614925293,0.24867513828558796,-0.24867513828558796,0.025703610614925293,142.1911638299133,150.50583626075465)" stroke-linecap="round" stroke-width="4" stroke="#4c4e52"></line><line x1="120" y1="0" x2="160" y2="40" transform="matrix(-0.13907315319844013,0.20774661985082502,-0.20774661985082502,-0.13907315319844013,163.62517384479813,-6.303063715146699)" stroke-linecap="round" stroke-width="4" stroke="#4c4e52"></line><line x1="120" y1="40" x2="160" y2="80" transform="matrix(-0.1017331123242769,0.22836456348745543,-0.22836456348745543,-0.1017331123242769,167.9445095346461,34.132947851212855)" stroke-linecap="round" stroke-width="4" stroke="#4c4e52"></line><line x1="120" y1="80" x2="160" y2="120" transform="matrix(-0.08036877175151942,0.2367295092022796,-0.2367295092022796,-0.08036877175151942,174.92457896544067,74.8947458868328)" stroke-linecap="round" stroke-width="4" stroke="#4c4e52"></line><line x1="120" y1="120" x2="160" y2="160" transform="matrix(-0.07848492145383351,0.23736073201855773,-0.23736073201855773,-0.07848492145383351,184.21839148613478,117.75738652093861)" stroke-linecap="round" stroke-width="4" stroke="#4c4e52"></line><line x1="120" y1="160" x2="160" y2="200" transform="matrix(-0.096425511679069,0.2306558490423118,-0.2306558490423118,-0.096425511679069,195.01762446268577,165.06477323630878)" stroke-linecap="round" stroke-width="4" stroke="#4c4e52"></line><line x1="160" y1="0" x2="200" y2="40" transform="matrix(-0.23313823195527972,0.09025832261219013,-0.09025832261219013,-0.23313823195527972,223.77004820419415,8.41626656891137)" stroke-linecap="round" stroke-width="4" stroke="#4c4e52"></line><line x1="160" y1="40" x2="200" y2="80" transform="matrix(-0.2276271709187249,0.10337248695633479,-0.10337248695633479,-0.2276271709187249,227.17523998275055,55.050582602983226)" stroke-linecap="round" stroke-width="4" stroke="#4c4e52"></line><line x1="160" y1="80" x2="200" y2="120" transform="matrix(-0.2240742997522784,0.11086346643744314,-0.11086346643744314,-0.2240742997522784,231.41972059915443,102.45200601648807)" stroke-linecap="round" stroke-width="4" stroke="#4c4e52"></line><line x1="160" y1="120" x2="200" y2="160" transform="matrix(-0.2237535230115563,0.11150946569649119,-0.11150946569649119,-0.2237535230115563,235.88695933958888,151.25378939624946)" stroke-linecap="round" stroke-width="4" stroke="#4c4e52"></line><line x1="160" y1="160" x2="200" y2="200" transform="matrix(-0.22676958169096623,0.10524047139624661,-0.10524047139624661,-0.22676958169096623,239.7618095556983,201.87523985304952)" stroke-linecap="round" stroke-width="4" stroke="#4c4e52"></line></svg>