<svg class="generator__canvas" viewBox="0 0 200 200" xmlns="http://www.w3.org/2000/svg" version="1.1" xmlns:xlink="http://www.w3.org/1999/xlink" xmlns:svgjs="http://svgjs.dev/svgjs"><circle r="12.5" cx="12.5" cy="12.5" fill="#4c4e52" transform="matrix(0.3441234660272979,0,0,0.3441234660272979,8.198456674658775,8.198456674658775)"></circle><circle r="12.5" cx="12.5" cy="37.5" fill="#4c4e52" transform="matrix(0.38446645538512436,0,0,0.38446645538512436,7.694169307685946,23.082507923057836)"></circle><circle r="12.5" cx="12.5" cy="62.5" fill="#4c4e52" transform="matrix(0.418350417573151,0,0,0.418350417573151,7.270619780335612,36.35309890167807)"></circle><circle r="12.5" cx="12.5" cy="87.5" fill="#4c4e52" transform="matrix(0.44187830091863606,0,0,0.44187830091863606,6.97652123851705,48.835648669619346)"></circle><circle r="12.5" cx="12.5" cy="112.5" fill="#4c4e52" transform="matrix(0.4566918432337041,0,0,0.4566918432337041,6.791351959578699,61.12216763620829)"></circle><circle r="12.5" cx="12.5" cy="137.5" fill="#4c4e52" transform="matrix(0.4683407119825332,0,0,0.4683407119825332,6.645741100218335,73.1031521024017)"></circle><circle r="12.5" cx="12.5" cy="162.5" fill="#4c4e52" transform="matrix(0.48330314983402023,0,0,0.48330314983402023,6.458710627074747,83.96323815197171)"></circle><circle r="12.5" cx="12.5" cy="187.5" fill="#4c4e52" transform="matrix(0.5055420128618622,0,0,0.5055420128618622,6.1807248392267224,92.71087258840085)"></circle><circle r="12.5" cx="37.5" cy="12.5" fill="#4c4e52" transform="matrix(0.35340778213438007,0,0,0.35340778213438007,24.24720816996075,8.08240272332025)"></circle><circle r="12.5" cx="37.5" cy="37.5" fill="#4c4e52" transform="matrix(0.4050187423736555,0,0,0.4050187423736555,22.311797160987922,22.311797160987922)"></circle><circle r="12.5" cx="37.5" cy="62.5" fill="#4c4e52" transform="matrix(0.4449840771899734,0,0,0.4449840771899734,20.813097105376,34.68849517562666)"></circle><circle r="12.5" cx="37.5" cy="87.5" fill="#4c4e52" transform="matrix(0.4665350717047417,0,0,0.4665350717047417,20.004934811072186,46.678181225835104)"></circle><circle r="12.5" cx="37.5" cy="112.5" fill="#4c4e52" transform="matrix(0.4702646082988835,0,0,0.4702646082988835,19.86507718879187,59.5952315663756)"></circle><circle r="12.5" cx="37.5" cy="137.5" fill="#4c4e52" transform="matrix(0.46305424034489473,0,0,0.46305424034489473,20.135465987066446,73.83004195257698)"></circle><circle r="12.5" cx="37.5" cy="162.5" fill="#4c4e52" transform="matrix(0.4547759909680615,0,0,0.4547759909680615,20.445900338697694,88.59890146769001)"></circle><circle r="12.5" cx="37.5" cy="187.5" fill="#4c4e52" transform="matrix(0.45365052300990766,0,0,0.45365052300990766,20.488105387128464,102.44052693564231)"></circle><circle r="12.5" cx="62.5" cy="12.5" fill="#4c4e52" transform="matrix(0.39264619919855726,0,0,0.39264619919855726,37.95961255009017,7.591922510018034)"></circle><circle r="12.5" cx="62.5" cy="37.5" fill="#4c4e52" transform="matrix(0.44900817236647067,0,0,0.44900817236647067,34.43698922709558,20.662193536257348)"></circle><circle r="12.5" cx="62.5" cy="62.5" fill="#4c4e52" transform="matrix(0.4873957536258938,0,0,0.4873957536258938,32.03776539838164,32.03776539838164)"></circle><circle r="12.5" cx="62.5" cy="87.5" fill="#4c4e52" transform="matrix(0.4996155267771934,0,0,0.4996155267771934,31.274029576425413,43.78364140699558)"></circle><circle r="12.5" cx="62.5" cy="112.5" fill="#4c4e52" transform="matrix(0.4863699357098293,0,0,0.4863699357098293,32.10187901813567,57.78338223264421)"></circle><circle r="12.5" cx="62.5" cy="137.5" fill="#4c4e52" transform="matrix(0.45657792947372067,0,0,0.45657792947372067,33.96387940789246,74.7205346973634)"></circle><circle r="12.5" cx="62.5" cy="162.5" fill="#4c4e52" transform="matrix(0.42356368208468276,0,0,0.42356368208468276,36.027269869707325,93.67090166123906)"></circle><circle r="12.5" cx="62.5" cy="187.5" fill="#4c4e52" transform="matrix(0.3990548221044533,0,0,0.3990548221044533,37.55907361847167,112.677220855415)"></circle><circle r="12.5" cx="87.5" cy="12.5" fill="#4c4e52" transform="matrix(0.4517327038108787,0,0,0.4517327038108787,47.97338841654811,6.853341202364016)"></circle><circle r="12.5" cx="87.5" cy="37.5" fill="#4c4e52" transform="matrix(0.5068004788965756,0,0,0.5068004788965756,43.15495809654963,18.494982041378414)"></circle><circle r="12.5" cx="87.5" cy="62.5" fill="#4c4e52" transform="matrix(0.5379251664810648,0,0,0.5379251664810648,40.43154793290683,28.87967709493345)"></circle><circle r="12.5" cx="87.5" cy="87.5" fill="#4c4e52" transform="matrix(0.536878236269875,0,0,0.536878236269875,40.52315432638594,40.52315432638594)"></circle><circle r="12.5" cx="87.5" cy="112.5" fill="#4c4e52" transform="matrix(0.5052628939021748,0,0,0.5052628939021748,43.289496783559706,55.65792443600533)"></circle><circle r="12.5" cx="87.5" cy="137.5" fill="#4c4e52" transform="matrix(0.4540540930192579,0,0,0.4540540930192579,47.770266860814935,75.06756220985204)"></circle><circle r="12.5" cx="87.5" cy="162.5" fill="#4c4e52" transform="matrix(0.39909171143177413,0,0,0.39909171143177413,52.57947524971976,97.64759689233671)"></circle><circle r="12.5" cx="87.5" cy="187.5" fill="#4c4e52" transform="matrix(0.354220563358963,0,0,0.354220563358963,56.505700706090735,121.08364437019443)"></circle><circle r="12.5" cx="112.5" cy="12.5" fill="#4c4e52" transform="matrix(0.5159349865965195,0,0,0.5159349865965195,54.45731400789156,6.050812667543506)"></circle><circle r="12.5" cx="112.5" cy="37.5" fill="#4c4e52" transform="matrix(0.564524515103839,0,0,0.564524515103839,48.99099205081811,16.330330683606036)"></circle><circle r="12.5" cx="112.5" cy="62.5" fill="#4c4e52" transform="matrix(0.5851116349591464,0,0,0.5851116349591464,46.67494106709603,25.93052281505335)"></circle><circle r="12.5" cx="112.5" cy="87.5" fill="#4c4e52" transform="matrix(0.5703821314894165,0,0,0.5703821314894165,48.332010207440646,37.59156349467605)"></circle><circle r="12.5" cx="112.5" cy="112.5" fill="#4c4e52" transform="matrix(0.5232027993178567,0,0,0.5232027993178567,53.63968507674112,53.63968507674112)"></circle><circle r="12.5" cx="112.5" cy="137.5" fill="#4c4e52" transform="matrix(0.4557853635930752,0,0,0.4557853635930752,61.22414659577904,74.82951250595215)"></circle><circle r="12.5" cx="112.5" cy="162.5" fill="#4c4e52" transform="matrix(0.38445445367150965,0,0,0.38445445367150965,69.24887396195516,100.02615127837967)"></circle><circle r="12.5" cx="112.5" cy="187.5" fill="#4c4e52" transform="matrix(0.32438100950769677,0,0,0.32438100950769677,76.00713643038412,126.67856071730685)"></circle><circle r="12.5" cx="137.5" cy="12.5" fill="#4c4e52" transform="matrix(0.5713323725680463,0,0,0.5713323725680463,58.941798771893644,5.358345342899422)"></circle><circle r="12.5" cx="137.5" cy="37.5" fill="#4c4e52" transform="matrix(0.6097667466119454,0,0,0.6097667466119454,53.65707234085751,14.633747002052047)"></circle><circle r="12.5" cx="137.5" cy="62.5" fill="#4c4e52" transform="matrix(0.6191875822125416,0,0,0.6191875822125416,52.36170744577554,23.800776111716154)"></circle><circle r="12.5" cx="137.5" cy="87.5" fill="#4c4e52" transform="matrix(0.5936092540779231,0,0,0.5936092540779231,55.87872756428557,35.55919026818173)"></circle><circle r="12.5" cx="137.5" cy="112.5" fill="#4c4e52" transform="matrix(0.5359687692061577,0,0,0.5359687692061577,63.80429423415332,52.203513464307264)"></circle><circle r="12.5" cx="137.5" cy="137.5" fill="#4c4e52" transform="matrix(0.45833832291381815,0,0,0.45833832291381815,74.47848059935001,74.47848059935001)"></circle><circle r="12.5" cx="137.5" cy="162.5" fill="#4c4e52" transform="matrix(0.3765028109414772,0,0,0.3765028109414772,85.73086349554688,101.31829322200996)"></circle><circle r="12.5" cx="137.5" cy="187.5" fill="#4c4e52" transform="matrix(0.3069073000801732,0,0,0.3069073000801732,95.30024623897619,129.95488123496753)"></circle><circle r="12.5" cx="162.5" cy="12.5" fill="#4c4e52" transform="matrix(0.6091553085853798,0,0,0.6091553085853798,63.51226235487579,4.885558642682753)"></circle><circle r="12.5" cx="162.5" cy="37.5" fill="#4c4e52" transform="matrix(0.635845196483503,0,0,0.635845196483503,59.175155571430764,13.655805131868636)"></circle><circle r="12.5" cx="162.5" cy="62.5" fill="#4c4e52" transform="matrix(0.6359180921568086,0,0,0.6359180921568086,59.163310024518594,22.755119240199463)"></circle><circle r="12.5" cx="162.5" cy="87.5" fill="#4c4e52" transform="matrix(0.6044662032811883,0,0,0.6044662032811883,64.27424196680691,34.609207212896024)"></circle><circle r="12.5" cx="162.5" cy="112.5" fill="#4c4e52" transform="matrix(0.5423413316815863,0,0,0.5423413316815863,74.36953360174223,51.486600185821544)"></circle><circle r="12.5" cx="162.5" cy="137.5" fill="#4c4e52" transform="matrix(0.45966883484088444,0,0,0.45966883484088444,87.80381433835628,74.29553520937839)"></circle><circle r="12.5" cx="162.5" cy="162.5" fill="#4c4e52" transform="matrix(0.37259107090420707,0,0,0.37259107090420707,101.95395097806636,101.95395097806636)"></circle><circle r="12.5" cx="162.5" cy="187.5" fill="#4c4e52" transform="matrix(0.2983559631309915,0,0,0.2983559631309915,114.01715599121388,131.5582569129391)"></circle><circle r="12.5" cx="187.5" cy="12.5" fill="#4c4e52" transform="matrix(0.6281969788303245,0,0,0.6281969788303245,69.71306646931414,4.647537764620943)"></circle><circle r="12.5" cx="187.5" cy="37.5" fill="#4c4e52" transform="matrix(0.6432834340082566,0,0,0.6432834340082566,66.88435612345188,13.376871224690376)"></circle><circle r="12.5" cx="187.5" cy="62.5" fill="#4c4e52" transform="matrix(0.6367464247136074,0,0,0.6367464247136074,68.1100453661986,22.703348455399535)"></circle><circle r="12.5" cx="187.5" cy="87.5" fill="#4c4e52" transform="matrix(0.6034730358362186,0,0,0.6034730358362186,74.34880578070901,34.69610936433087)"></circle><circle r="12.5" cx="187.5" cy="112.5" fill="#4c4e52" transform="matrix(0.5416724872276438,0,0,0.5416724872276438,85.93640864481678,51.56184518689007)"></circle><circle r="12.5" cx="187.5" cy="137.5" fill="#4c4e52" transform="matrix(0.45952920197479036,0,0,0.45952920197479036,101.33827462972681,74.31473472846633)"></circle><circle r="12.5" cx="187.5" cy="162.5" fill="#4c4e52" transform="matrix(0.3730016311615322,0,0,0.3730016311615322,117.56219415721272,101.88723493625102)"></circle><circle r="12.5" cx="187.5" cy="187.5" fill="#4c4e52" transform="matrix(0.2992552754787715,0,0,0.2992552754787715,131.38963584773035,131.38963584773035)"></circle></svg>