<svg class="generator__canvas" viewBox="0 0 200 200" xmlns="http://www.w3.org/2000/svg" version="1.1" xmlns:xlink="http://www.w3.org/1999/xlink" xmlns:svgjs="http://svgjs.dev/svgjs"><line x1="0" y1="0" x2="20" y2="20" transform="matrix(-0.09192305038489282,-0.23248688738923848,0.23248688738923848,-0.09192305038489282,8.594361629956543,13.244099377741312)" stroke-linecap="round" stroke-width="4" stroke="#4c4e52"></line><line x1="0" y1="20" x2="20" y2="40" transform="matrix(-0.04351852521217282,-0.246183139072028,0.246183139072028,-0.04351852521217282,3.0496910799608887,33.767387147085465)" stroke-linecap="round" stroke-width="4" stroke="#4c4e52"></line><line x1="0" y1="40" x2="20" y2="60" transform="matrix(-0.004934414847043956,-0.2499512983565344,0.2499512983565344,-0.004934414847043956,-2.448220769356281,52.74623372591754)" stroke-linecap="round" stroke-width="4" stroke="#4c4e52"></line><line x1="0" y1="60" x2="20" y2="80" transform="matrix(0.021443216336111546,-0.2490786792825968,0.2490786792825968,0.021443216336111546,-7.649939713142892,70.98976164929816)" stroke-linecap="round" stroke-width="4" stroke="#4c4e52"></line><line x1="0" y1="80" x2="20" y2="100" transform="matrix(0.03519068353474712,-0.24751083974718618,0.24751083974718618,0.03519068353474712,-12.627882412594229,89.30794687934463)" stroke-linecap="round" stroke-width="4" stroke="#4c4e52"></line><line x1="0" y1="100" x2="20" y2="120" transform="matrix(0.03686595524077377,-0.24726686260836744,0.24726686260836744,0.03686595524077377,-17.568014439328156,108.41741354959856)" stroke-linecap="round" stroke-width="4" stroke="#4c4e52"></line><line x1="0" y1="120" x2="20" y2="140" transform="matrix(0.02733146379553896,-0.24850149111583444,0.24850149111583444,0.02733146379553896,-22.578508483013863,128.93192461773828)" stroke-linecap="round" stroke-width="4" stroke="#4c4e52"></line><line x1="0" y1="140" x2="20" y2="160" transform="matrix(0.007439858568278932,-0.2498892724878041,0.2498892724878041,0.007439858568278932,-27.5577894588534,151.3829139396362)" stroke-linecap="round" stroke-width="4" stroke="#4c4e52"></line><line x1="0" y1="160" x2="20" y2="180" transform="matrix(-0.022032027777944496,-0.249027287163459,0.249027287163459,-0.022032027777944496,-32.11431854000859,176.23571759388514)" stroke-linecap="round" stroke-width="4" stroke="#4c4e52"></line><line x1="0" y1="180" x2="20" y2="200" transform="matrix(-0.05984897410511005,-0.24273050961625295,0.24273050961625295,-0.05984897410511005,-35.52030708603696,203.79861017613345)" stroke-linecap="round" stroke-width="4" stroke="#4c4e52"></line><line x1="20" y1="0" x2="40" y2="20" transform="matrix(-0.1056218999972524,-0.22659217603653134,0.22659217603653134,-0.1056218999972524,30.902735239552257,17.853984281068463)" stroke-linecap="round" stroke-width="4" stroke="#4c4e52"></line><line x1="20" y1="20" x2="40" y2="40" transform="matrix(-0.05065239760631821,-0.24481489868210932,0.24481489868210932,-0.05065239760631821,24.17512496772627,38.86401888865282)" stroke-linecap="round" stroke-width="4" stroke="#4c4e52"></line><line x1="20" y1="40" x2="40" y2="60" transform="matrix(-0.005131129377257396,-0.2499473374759448,0.2499473374759448,-0.005131129377257396,17.65656700752048,57.754976593141215)" stroke-linecap="round" stroke-width="4" stroke="#4c4e52"></line><line x1="20" y1="60" x2="40" y2="80" transform="matrix(0.027396301853009352,-0.2484943513337452,0.2484943513337452,0.027396301853009352,11.783506351047556,75.5370894103017)" stroke-linecap="round" stroke-width="4" stroke="#4c4e52"></line><line x1="20" y1="80" x2="40" y2="100" transform="matrix(0.046067443145179604,-0.24571892617799232,0.24571892617799232,0.046067443145179604,6.503273349625303,93.2254979022736)" stroke-linecap="round" stroke-width="4" stroke="#4c4e52"></line><line x1="20" y1="100" x2="40" y2="120" transform="matrix(0.05140353799934872,-0.24465828471799092,0.24465828471799092,0.05140353799934872,1.5454825410405384,111.68535936161138)" stroke-linecap="round" stroke-width="4" stroke="#4c4e52"></line><line x1="20" y1="120" x2="40" y2="140" transform="matrix(0.044341498002889466,-0.2460362403282487,0.2460362403282487,0.044341498002889466,-3.314956182759012,131.61669246947184)" stroke-linecap="round" stroke-width="4" stroke="#4c4e52"></line><line x1="20" y1="140" x2="40" y2="160" transform="matrix(0.02581003709047563,-0.24866411479219971,0.24866411479219971,0.02581003709047563,-8.073918331544228,153.58841788019464)" stroke-linecap="round" stroke-width="4" stroke="#4c4e52"></line><line x1="20" y1="160" x2="40" y2="180" transform="matrix(-0.003327383226490845,-0.24997785606102008,0.24997785606102008,-0.003327383226490845,-12.396414033578687,178.06499083033404)" stroke-linecap="round" stroke-width="4" stroke="#4c4e52"></line><line x1="20" y1="180" x2="40" y2="200" transform="matrix(-0.04201305203448481,-0.24644452409974069,0.24644452409974069,-0.04201305203448481,-15.564068017916185,205.37581560954433)" stroke-linecap="round" stroke-width="4" stroke="#4c4e52"></line><line x1="40" y1="0" x2="60" y2="20" transform="matrix(-0.12086647185113775,-0.2188408005429018,0.2188408005429018,-0.12086647185113775,53.85491558712787,22.15070474565647)" stroke-linecap="round" stroke-width="4" stroke="#4c4e52"></line><line x1="40" y1="20" x2="60" y2="40" transform="matrix(-0.059758140619631125,-0.2427528879945291,0.2427528879945291,-0.059758140619631125,45.70532039114568,43.93038861831539)" stroke-linecap="round" stroke-width="4" stroke="#4c4e52"></line><line x1="40" y1="40" x2="60" y2="60" transform="matrix(-0.007188264056892409,-0.24989663635160916,0.24989663635160916,-0.007188264056892409,37.86458138526416,62.85424502042508)" stroke-linecap="round" stroke-width="4" stroke="#4c4e52"></line><line x1="40" y1="60" x2="60" y2="80" transform="matrix(0.03177264028708085,-0.24797277941174867,0.24797277941174867,0.03177264028708085,31.053273426823548,80.17455415049177)" stroke-linecap="round" stroke-width="4" stroke="#4c4e52"></line><line x1="40" y1="80" x2="60" y2="100" transform="matrix(0.055639564120092216,-0.24372984820191013,0.24372984820191013,0.055639564120092216,25.28233545582348,97.17893163928721)" stroke-linecap="round" stroke-width="4" stroke="#4c4e52"></line><line x1="40" y1="100" x2="60" y2="120" transform="matrix(0.06486475539394897,-0.24143852945974295,0.24143852945974295,0.06486475539394897,20.198523989730827,114.93680337965276)" stroke-linecap="round" stroke-width="4" stroke="#4c4e52"></line><line x1="40" y1="120" x2="60" y2="140" transform="matrix(0.06047255250984012,-0.2425759064559888,0.2425759064559888,0.06047255250984012,15.441504535229448,134.26736349652023)" stroke-linecap="round" stroke-width="4" stroke="#4c4e52"></line><line x1="40" y1="140" x2="60" y2="160" transform="matrix(0.043430142634669676,-0.24619874636303948,0.24619874636303948,0.043430142634669676,10.898680913810594,155.79541592295152)" stroke-linecap="round" stroke-width="4" stroke="#4c4e52"></line><line x1="40" y1="160" x2="60" y2="180" transform="matrix(0.014623283499914538,-0.24957195271039798,0.24957195271039798,0.014623283499914538,6.8416038642366175,179.99263944053442)" stroke-linecap="round" stroke-width="4" stroke="#4c4e52"></line><line x1="40" y1="180" x2="60" y2="200" transform="matrix(-0.024900819817122454,-0.24875680728863522,0.24875680728863522,-0.024900819817122454,3.9812476060154296,207.168996129685)" stroke-linecap="round" stroke-width="4" stroke="#4c4e52"></line><line x1="60" y1="0" x2="80" y2="20" transform="matrix(-0.1373514480474387,-0.20888891717674193,0.20888891717674193,-0.1373514480474387,77.52571219155328,25.995738682846323)" stroke-linecap="round" stroke-width="4" stroke="#4c4e52"></line><line x1="60" y1="20" x2="80" y2="40" transform="matrix(-0.07101227423310422,-0.2397024340891064,0.2397024340891064,-0.07101227423310422,67.7797861736441,48.90953861323058)" stroke-linecap="round" stroke-width="4" stroke="#4c4e52"></line><line x1="60" y1="40" x2="80" y2="60" transform="matrix(-0.0116229983806602,-0.2497296656559712,0.2497296656559712,-0.0116229983806602,58.32712660384765,68.06222651495099)" stroke-linecap="round" stroke-width="4" stroke="#4c4e52"></line><line x1="60" y1="60" x2="80" y2="80" transform="matrix(0.03383230364416846,-0.2477001720429939,0.2477001720429939,0.03383230364416846,50.29272670189863,84.97075078791778)" stroke-linecap="round" stroke-width="4" stroke="#4c4e52"></line><line x1="60" y1="80" x2="80" y2="100" transform="matrix(0.06300720231394008,-0.241929932948716,0.241929932948716,0.06300720231394008,43.81580187263975,101.26444709815551)" stroke-linecap="round" stroke-width="4" stroke="#4c4e52"></line><line x1="60" y1="100" x2="80" y2="120" transform="matrix(0.07622242498552047,-0.23809691709328515,0.23809691709328515,0.07622242498552047,38.4737693707522,118.28231744812271)" stroke-linecap="round" stroke-width="4" stroke="#4c4e52"></line><line x1="60" y1="120" x2="80" y2="140" transform="matrix(0.07461533774703469,-0.23860543030890127,0.23860543030890127,0.07461533774703469,33.758220417550405,137.0023862145086)" stroke-linecap="round" stroke-width="4" stroke="#4c4e52"></line><line x1="60" y1="140" x2="80" y2="160" transform="matrix(0.0591984236252292,-0.2428899887609366,0.2428899887609366,0.0591984236252292,29.42261203209347,158.12253566948118)" stroke-linecap="round" stroke-width="4" stroke="#4c4e52"></line><line x1="60" y1="160" x2="80" y2="180" transform="matrix(0.030808687629272333,-0.24809438680986298,0.24809438680986298,0.030808687629272333,25.66734610827423,182.1291301797141)" stroke-linecap="round" stroke-width="4" stroke="#4c4e52"></line><line x1="60" y1="180" x2="80" y2="200" transform="matrix(-0.009490837274531757,-0.24981978305936534,0.24981978305936534,-0.009490837274531757,23.198599827937812,209.2906438963166)" stroke-linecap="round" stroke-width="4" stroke="#4c4e52"></line><line x1="80" y1="0" x2="100" y2="20" transform="matrix(-0.1545857234071634,-0.19647710838335333,0.19647710838335333,-0.1545857234071634,101.94794402281117,29.228796988573432)" stroke-linecap="round" stroke-width="4" stroke="#4c4e52"></line><line x1="80" y1="20" x2="100" y2="40" transform="matrix(-0.08440941597313066,-0.23531903980569654,0.23531903980569654,-0.08440941597313066,90.53727624341086,53.71099606170661)" stroke-linecap="round" stroke-width="4" stroke="#4c4e52"></line><line x1="80" y1="40" x2="100" y2="60" transform="matrix(-0.01881107376550505,-0.249291282446436,0.249291282446436,-0.01881107376550505,79.22843251657366,73.3767691084545)" stroke-linecap="round" stroke-width="4" stroke="#4c4e52"></line><line x1="80" y1="60" x2="100" y2="80" transform="matrix(0.03295649558547095,-0.24781821845603852,0.24781821845603852,0.03295649558547095,69.68664010538492,89.9966849700605)" stroke-linecap="round" stroke-width="4" stroke="#4c4e52"></line><line x1="80" y1="80" x2="100" y2="100" transform="matrix(0.0673987319505018,-0.24074345459734603,0.24074345459734603,0.0673987319505018,62.267203210693694,105.60102503821598)" stroke-linecap="round" stroke-width="4" stroke="#4c4e52"></line><line x1="80" y1="100" x2="100" y2="120" transform="matrix(0.08458811015347986,-0.23525486524334147,0.23525486524334147,0.08458811015347986,56.50903490941925,121.86824575501795)" stroke-linecap="round" stroke-width="4" stroke="#4c4e52"></line><line x1="80" y1="120" x2="100" y2="140" transform="matrix(0.08578262064559444,-0.23482193678439423,0.23482193678439423,0.08578262064559444,51.752712359925255,139.9822336266682)" stroke-linecap="round" stroke-width="4" stroke="#4c4e52"></line><line x1="80" y1="140" x2="100" y2="160" transform="matrix(0.07207401364279865,-0.23938533070641083,0.23938533070641083,0.07207401364279865,47.6055391661865,160.73357771715717)" stroke-linecap="round" stroke-width="4" stroke="#4c4e52"></line><line x1="80" y1="160" x2="100" y2="180" transform="matrix(0.044232529757645564,-0.24605585404789498,0.24605585404789498,0.044232529757645564,44.18957713366975,184.6254968055108)" stroke-linecap="round" stroke-width="4" stroke="#4c4e52"></line><line x1="80" y1="180" x2="100" y2="200" transform="matrix(0.0032839680875756515,-0.249978430176685,0.249978430176685,0.0032839680875756515,42.20854113854804,211.87410477926227)" stroke-linecap="round" stroke-width="4" stroke="#4c4e52"></line><line x1="100" y1="0" x2="120" y2="20" transform="matrix(-0.17195353935368804,-0.18147170662045273,0.18147170662045273,-0.17195353935368804,127.10017226270116,31.68142312178668)" stroke-linecap="round" stroke-width="4" stroke="#4c4e52"></line><line x1="100" y1="20" x2="120" y2="40" transform="matrix(-0.09977589809459891,-0.22922646042596437,0.22922646042596437,-0.09977589809459891,114.09855497762695,58.20818758969405)" stroke-linecap="round" stroke-width="4" stroke="#4c4e52"></line><line x1="100" y1="40" x2="120" y2="60" transform="matrix(-0.028987930136348882,-0.2483137126829893,0.2483137126829893,-0.028987930136348882,100.77298668084892,78.76390490194626)" stroke-linecap="round" stroke-width="4" stroke="#4c4e52"></line><line x1="100" y1="60" x2="120" y2="80" transform="matrix(0.02864303155050743,-0.24835373309776648,0.24835373309776648,0.02864303155050743,89.46450521260053,95.31389843221879)" stroke-linecap="round" stroke-width="4" stroke="#4c4e52"></line><line x1="100" y1="80" x2="120" y2="100" transform="matrix(0.06816829756117382,-0.24052667878555856,0.24052667878555856,0.06816829756117382,80.85408617757061,110.3227878859058)" stroke-linecap="round" stroke-width="4" stroke="#4c4e52"></line><line x1="100" y1="100" x2="120" y2="120" transform="matrix(0.0892289704132382,-0.23353413206423052,0.23353413206423052,0.0892289704132382,74.49605872747844,125.87356778160915)" stroke-linecap="round" stroke-width="4" stroke="#4c4e52"></line><line x1="100" y1="120" x2="120" y2="140" transform="matrix(0.09316330343929237,-0.23199266991066406,0.23199266991066406,0.09316330343929237,69.59298953329152,143.40796424306504)" stroke-linecap="round" stroke-width="4" stroke="#4c4e52"></line><line x1="100" y1="140" x2="120" y2="160" transform="matrix(0.0811780209090727,-0.23645322776668995,0.23645322776668995,0.0811780209090727,65.60243353499851,163.833151917975)" stroke-linecap="round" stroke-width="4" stroke="#4c4e52"></line><line x1="100" y1="160" x2="120" y2="180" transform="matrix(0.05400881950647219,-0.24409638959951313,0.24409638959951313,0.05400881950647219,62.56264362237082,187.66910353984616)" stroke-linecap="round" stroke-width="4" stroke="#4c4e52"></line><line x1="100" y1="180" x2="120" y2="200" transform="matrix(0.012629494642227826,-0.24968078793748216,0.24968078793748216,0.012629494642227826,61.171405881233326,215.06528269109975)" stroke-linecap="round" stroke-width="4" stroke="#4c4e52"></line><line x1="120" y1="0" x2="140" y2="20" transform="matrix(-0.18878315721111624,-0.1638930125215928,0.1638930125215928,-0.18878315721111624,152.90288031222917,33.19392319991823)" stroke-linecap="round" stroke-width="4" stroke="#4c4e52"></line><line x1="120" y1="20" x2="140" y2="40" transform="matrix(-0.11678465291056513,-0.221046024267705,0.221046024267705,-0.11678465291056513,138.55062415034232,62.2395227421186)" stroke-linecap="round" stroke-width="4" stroke="#4c4e52"></line><line x1="120" y1="40" x2="140" y2="60" transform="matrix(-0.04224154607831976,-0.24640546216533674,0.24640546216533674,-0.04224154607831976,123.17112788191473,84.14478738540976)" stroke-linecap="round" stroke-width="4" stroke="#4c4e52"></line><line x1="120" y1="60" x2="140" y2="80" transform="matrix(0.02050772129456715,-0.24915744694330202,0.24915744694330202,0.02050772129456715,109.89297494567512,100.95492761200956)" stroke-linecap="round" stroke-width="4" stroke="#4c4e52"></line><line x1="120" y1="80" x2="140" y2="100" transform="matrix(0.06478382800099328,-0.24146025683233613,0.24146025683233613,0.06478382800099328,99.84667924496063,115.5592888681143)" stroke-linecap="round" stroke-width="4" stroke="#4c4e52"></line><line x1="120" y1="100" x2="140" y2="120" transform="matrix(0.08955337957065307,-0.23340992311269573,0.23340992311269573,0.08955337957065307,92.68296911341858,130.4924182518786)" stroke-linecap="round" stroke-width="4" stroke="#4c4e52"></line><line x1="120" y1="120" x2="140" y2="140" transform="matrix(0.09612689281874395,-0.23078045947829662,0.23078045947829662,0.09612689281874395,87.50204420138473,147.50496366574185)" stroke-linecap="round" stroke-width="4" stroke="#4c4e52"></line><line x1="120" y1="140" x2="140" y2="160" transform="matrix(0.08583850524230426,-0.23480151408746688,0.23480151408746688,0.08583850524230426,83.62076720538042,167.64842104502506)" stroke-linecap="round" stroke-width="4" stroke="#4c4e52"></line><line x1="120" y1="160" x2="140" y2="180" transform="matrix(0.059458193259571496,-0.24282652914026392,0.24282652914026392,0.059458193259571496,80.98992492241084,191.45955593410716)" stroke-linecap="round" stroke-width="4" stroke="#4c4e52"></line><line x1="120" y1="180" x2="140" y2="200" transform="matrix(0.017967867793761298,-0.24935347546594555,0.24935347546594555,0.017967867793761298,80.28701684828138,219.00205692975828)" stroke-linecap="round" stroke-width="4" stroke="#4c4e52"></line><line x1="140" y1="0" x2="160" y2="20" transform="matrix(-0.20441377764298815,-0.14392709095136677,0.14392709095136677,-0.20441377764298815,179.22279573693456,33.63320141913489)" stroke-linecap="round" stroke-width="4" stroke="#4c4e52"></line><line x1="140" y1="20" x2="160" y2="40" transform="matrix(-0.13496922364978528,-0.2104359966055576,0.2104359966055576,-0.13496922364978528,163.93230364930108,65.6144762003272)" stroke-linecap="round" stroke-width="4" stroke="#4c4e52"></line><line x1="140" y1="40" x2="160" y2="60" transform="matrix(-0.05849085049866991,-0.24306135111930535,0.24306135111930535,-0.05849085049866991,146.62056001883522,89.3837451928293)" stroke-linecap="round" stroke-width="4" stroke="#4c4e52"></line><line x1="140" y1="60" x2="160" y2="80" transform="matrix(0.008307527324106693,-0.2498619318538925,0.2498619318538925,0.008307527324106693,131.26353567161152,106.8977628653964)" stroke-linecap="round" stroke-width="4" stroke="#4c4e52"></line><line x1="140" y1="80" x2="160" y2="100" transform="matrix(0.05683095096178178,-0.24345480692066762,0.24345480692066762,0.05683095096178178,119.56442473287265,121.40343545153979)" stroke-linecap="round" stroke-width="4" stroke="#4c4e52"></line><line x1="140" y1="100" x2="160" y2="120" transform="matrix(0.08509669736089169,-0.2350713766035091,0.2350713766035091,0.08509669736089169,111.37764396948025,135.9000697808283)" stroke-linecap="round" stroke-width="4" stroke="#4c4e52"></line><line x1="140" y1="120" x2="160" y2="140" transform="matrix(0.09421036587622023,-0.23156944306507438,0.23156944306507438,0.09421036587622023,105.76441752010729,152.48806889585254)" stroke-linecap="round" stroke-width="4" stroke="#4c4e52"></line><line x1="140" y1="140" x2="160" y2="160" transform="matrix(0.08560662434135403,-0.2348861551238776,0.2348861551238776,0.08560662434135403,101.92608308021525,172.39192961737854)" stroke-linecap="round" stroke-width="4" stroke="#4c4e52"></line><line x1="140" y1="160" x2="160" y2="180" transform="matrix(0.06017809693331086,-0.24264912249889767,0.24264912249889767,0.06017809693331086,99.72293463519077,196.1670918961718)" stroke-linecap="round" stroke-width="4" stroke="#4c4e52"></line><line x1="140" y1="180" x2="160" y2="200" transform="matrix(0.01902124982266525,-0.24927533382824654,0.24927533382824654,0.01902124982266525,99.78449909923337,223.7772626079306)" stroke-linecap="round" stroke-width="4" stroke="#4c4e52"></line><line x1="160" y1="0" x2="180" y2="20" transform="matrix(-0.21825316204262818,-0.12192439156458516,0.12192439156458516,-0.21825316204262818,205.88379363160095,32.909678186405756)" stroke-linecap="round" stroke-width="4" stroke="#4c4e52"></line><line x1="160" y1="20" x2="180" y2="40" transform="matrix(-0.1537371466004414,-0.19714180113602084,0.19714180113602084,-0.1537371466004414,190.2210608879944,68.12622059113679)" stroke-linecap="round" stroke-width="4" stroke="#4c4e52"></line><line x1="160" y1="40" x2="180" y2="60" transform="matrix(-0.07744857383469769,-0.23770090115725556,0.23770090115725556,-0.07744857383469769,171.28121249403583,94.28158188846834)" stroke-linecap="round" stroke-width="4" stroke="#4c4e52"></line><line x1="160" y1="60" x2="180" y2="80" transform="matrix(-0.008002838521038396,-0.24987187631985755,0.24987187631985755,-0.008002838521038396,153.8694512061865,113.03841767084847)" stroke-linecap="round" stroke-width="4" stroke="#4c4e52"></line><line x1="160" y1="80" x2="180" y2="100" transform="matrix(0.044058768332343755,-0.24608702715307212,0.24608702715307212,0.044058768332343755,140.36217693972506,127.86950546611132)" stroke-linecap="round" stroke-width="4" stroke="#4c4e52"></line><line x1="160" y1="100" x2="180" y2="120" transform="matrix(0.07554649154077403,-0.23831224814490706,0.23831224814490706,0.07554649154077403,130.94274914212863,142.20296811514905)" stroke-linecap="round" stroke-width="4" stroke="#4c4e52"></line><line x1="160" y1="120" x2="180" y2="140" transform="matrix(0.08713548655597686,-0.23432329585991482,0.23432329585991482,0.08713548655597686,124.72493882369501,158.50734704390854)" stroke-linecap="round" stroke-width="4" stroke="#4c4e52"></line><line x1="160" y1="140" x2="180" y2="160" transform="matrix(0.08029041226099638,-0.23675609749055934,0.23675609749055934,0.08029041226099638,120.83721529204672,178.20497473424564)" stroke-linecap="round" stroke-width="4" stroke="#4c4e52"></line><line x1="160" y1="160" x2="180" y2="180" transform="matrix(0.056075445909403936,-0.24362993323083582,0.24362993323083582,0.056075445909403936,119.05008554615924,201.88426284464342)" stroke-linecap="round" stroke-width="4" stroke="#4c4e52"></line><line x1="160" y1="180" x2="180" y2="200" transform="matrix(0.01574029999814344,-0.24950399386777047,0.24950399386777047,0.01574029999814344,119.91839016543923,229.42502195787372)" stroke-linecap="round" stroke-width="4" stroke="#4c4e52"></line><line x1="180" y1="0" x2="200" y2="20" transform="matrix(-0.22982311865016722,-0.09839377080847729,0.09839377080847729,-0.22982311865016722,232.682454835447,30.99304764011236)" stroke-linecap="round" stroke-width="4" stroke="#4c4e52"></line><line x1="180" y1="20" x2="200" y2="40" transform="matrix(-0.17238652326740506,-0.18106045011480673,0.18106045011480673,-0.17238652326740506,217.32162591736275,69.57308121983543)" stroke-linecap="round" stroke-width="4" stroke="#4c4e52"></line><line x1="180" y1="40" x2="200" y2="60" transform="matrix(-0.09857459026546952,-0.22974562053278577,0.22974562053278577,-0.09857459026546952,197.24189112379992,98.58039741450277)" stroke-linecap="round" stroke-width="4" stroke="#4c4e52"></line><line x1="180" y1="60" x2="200" y2="80" transform="matrix(-0.028178308471868113,-0.24840688986351456,0.24840688986351456,-0.028178308471868113,177.96539631920893,119.16979066709854)" stroke-linecap="round" stroke-width="4" stroke="#4c4e52"></line><line x1="180" y1="80" x2="200" y2="100" transform="matrix(0.026485953625783966,-0.24859302938846217,0.24859302938846217,0.026485953625783966,162.59429616613946,134.84893975748724)" stroke-linecap="round" stroke-width="4" stroke="#4c4e52"></line><line x1="180" y1="100" x2="200" y2="120" transform="matrix(0.06084213274013176,-0.24248347342372054,0.24248347342372054,0.06084213274013176,151.76681270276572,149.3792253490924)" stroke-linecap="round" stroke-width="4" stroke="#4c4e52"></line><line x1="180" y1="120" x2="200" y2="140" transform="matrix(0.07488653273750714,-0.23852045449930342,0.23852045449930342,0.07488653273750714,144.7638996949642,165.58363709899172)" stroke-linecap="round" stroke-width="4" stroke="#4c4e52"></line><line x1="180" y1="140" x2="200" y2="160" transform="matrix(0.06994837319473678,-0.24001505179344446,0.24001505179344446,0.06994837319473678,140.70755132398335,185.11060386154392)" stroke-linecap="round" stroke-width="4" stroke="#4c4e52"></line><line x1="180" y1="160" x2="200" y2="180" transform="matrix(0.047226961645798156,-0.2454987048717494,0.2454987048717494,0.047226961645798156,139.29209745910094,208.6161704458467)" stroke-linecap="round" stroke-width="4" stroke="#4c4e52"></line><line x1="180" y1="180" x2="200" y2="200" transform="matrix(0.008190071620693065,-0.24986580943948278,0.24986580943948278,0.008190071620693065,140.9693825985666,235.91839018557005)" stroke-linecap="round" stroke-width="4" stroke="#4c4e52"></line></svg>