<svg class="generator__canvas" viewBox="0 0 200 200" xmlns="http://www.w3.org/2000/svg" version="1.1" xmlns:xlink="http://www.w3.org/1999/xlink" xmlns:svgjs="http://svgjs.dev/svgjs"><line x1="0" y1="0" x2="25" y2="25" transform="matrix(-0.24481932148163038,0.0506310164748261,-0.0506310164748261,-0.24481932148163038,16.193129224455706,14.927353812585054)" stroke-linecap="round" stroke-width="4" stroke="#4c4e52"></line><line x1="0" y1="25" x2="25" y2="50" transform="matrix(-0.24531150759414685,0.04818987696484432,-0.04818987696484432,-0.24531150759414685,17.373514231108498,46.09680807271995)" stroke-linecap="round" stroke-width="4" stroke="#4c4e52"></line><line x1="0" y1="50" x2="25" y2="75" transform="matrix(-0.24565905437254637,0.04638565516176639,-0.04638565516176639,-0.24565905437254637,18.46984162726723,77.27387020876206)" stroke-linecap="round" stroke-width="4" stroke="#4c4e52"></line><line x1="0" y1="75" x2="25" y2="100" transform="matrix(-0.24600812112946555,0.04449723967113254,-0.04449723967113254,-0.24600812112946555,19.468609985342418,108.46949510293908)" stroke-linecap="round" stroke-width="4" stroke="#4c4e52"></line><line x1="0" y1="100" x2="25" y2="125" transform="matrix(-0.24649348150246816,0.041724855623385716,-0.041724855623385716,-0.24649348150246816,20.275214776411744,139.70895597373536)" stroke-linecap="round" stroke-width="4" stroke="#4c4e52"></line><line x1="0" y1="125" x2="25" y2="150" transform="matrix(-0.2472106276853713,0.037241180961467016,-0.037241180961467016,-0.2472106276853713,20.710795228268857,171.02594654472023)" stroke-linecap="round" stroke-width="4" stroke="#4c4e52"></line><line x1="0" y1="150" x2="25" y2="175" transform="matrix(-0.24816424981393653,0.030240785609605202,-0.030240785609605202,-0.24816424981393653,20.516180784235054,202.44868077464463)" stroke-linecap="round" stroke-width="4" stroke="#4c4e52"></line><line x1="0" y1="175" x2="25" y2="200" transform="matrix(-0.24919923998321797,0.019993468728225758,-0.019993468728225758,-0.24919923998321797,19.363765886332555,233.97493913775054)" stroke-linecap="round" stroke-width="4" stroke="#4c4e52"></line><line x1="25" y1="0" x2="50" y2="25" transform="matrix(-0.248882434519193,-0.023612153391836407,0.023612153391836407,-0.248882434519193,46.53793937707178,16.49648618368378)" stroke-linecap="round" stroke-width="4" stroke="#4c4e52"></line><line x1="25" y1="25" x2="50" y2="50" transform="matrix(-0.2483531980125715,-0.028647670706855935,0.028647670706855935,-0.2483531980125715,45.73895727396433,47.88753257697853)" stroke-linecap="round" stroke-width="4" stroke="#4c4e52"></line><line x1="25" y1="50" x2="50" y2="75" transform="matrix(-0.24800694415566873,-0.03150485122274043,0.03150485122274043,-0.24800694415566873,44.8312072044163,79.18186593058206)" stroke-linecap="round" stroke-width="4" stroke="#4c4e52"></line><line x1="25" y1="75" x2="50" y2="100" transform="matrix(-0.24783399866211883,-0.03283761725742104,0.03283761725742104,-0.24783399866211883,43.92048343980512,110.41688553008869)" stroke-linecap="round" stroke-width="4" stroke="#4c4e52"></line><line x1="25" y1="100" x2="50" y2="125" transform="matrix(-0.24775686118403312,-0.03341463356428963,0.03341463356428963,-0.24775686118403312,43.031736018418655,141.62569564186458)" stroke-linecap="round" stroke-width="4" stroke="#4c4e52"></line><line x1="25" y1="125" x2="50" y2="150" transform="matrix(-0.24766700076345236,-0.034074282572580813,0.034074282572580813,-0.24766700076345236,42.1022986748996,172.83199820144648)" stroke-linecap="round" stroke-width="4" stroke="#4c4e52"></line><line x1="25" y1="150" x2="50" y2="175" transform="matrix(-0.24744149350295705,-0.0356750233780732,0.0356750233780732,-0.24744149350295705,40.981864707423995,204.04705607090827)" stroke-linecap="round" stroke-width="4" stroke="#4c4e52"></line><line x1="25" y1="175" x2="50" y2="200" transform="matrix(-0.24693305117816652,-0.039039316539112065,0.039039316539112065,-0.24693305117816652,39.44011756809773,235.26392146612292)" stroke-linecap="round" stroke-width="4" stroke="#4c4e52"></line><line x1="50" y1="0" x2="75" y2="25" transform="matrix(-0.2322501906961812,-0.09251945158499085,0.09251945158499085,-0.2322501906961812,75.85914377369895,21.18559310776419)" stroke-linecap="round" stroke-width="4" stroke="#4c4e52"></line><line x1="50" y1="25" x2="75" y2="50" transform="matrix(-0.22927765187843085,-0.09965820763546307,0.09965820763546307,-0.22927765187843085,73.09267045607206,52.3265499226576)" stroke-linecap="round" stroke-width="4" stroke="#4c4e52"></line><line x1="50" y1="50" x2="75" y2="75" transform="matrix(-0.22767189379373054,-0.10327395013446655,0.10327395013446655,-0.22767189379373054,70.274871478704,83.18411524551232)" stroke-linecap="round" stroke-width="4" stroke="#4c4e52"></line><line x1="50" y1="75" x2="75" y2="100" transform="matrix(-0.2273672005557159,-0.10394304263132217,0.10394304263132217,-0.2273672005557159,67.61543380449156,113.89107021308277)" stroke-linecap="round" stroke-width="4" stroke="#4c4e52"></line><line x1="50" y1="100" x2="75" y2="125" transform="matrix(-0.22809300263657542,-0.10234052055872689,0.10234052055872689,-0.22809300263657542,65.24250410192919,144.55674533153518)" stroke-linecap="round" stroke-width="4" stroke="#4c4e52"></line><line x1="50" y1="125" x2="75" y2="150" transform="matrix(-0.22946310074302056,-0.0992304660746809,0.0992304660746809,-0.22946310074302056,63.19725471117016,175.25308048183288)" stroke-linecap="round" stroke-width="4" stroke="#4c4e52"></line><line x1="50" y1="150" x2="75" y2="175" transform="matrix(-0.23106039363278824,-0.09545205337896585,0.09545205337896585,-0.23106039363278824,61.430315927967314,206.01306730151344)" stroke-linecap="round" stroke-width="4" stroke="#4c4e52"></line><line x1="50" y1="175" x2="75" y2="200" transform="matrix(-0.23250049071450143,-0.09188863813070706,0.09188863813070706,-0.23250049071450143,59.802161020148766,236.8368818921382)" stroke-linecap="round" stroke-width="4" stroke="#4c4e52"></line><line x1="75" y1="0" x2="100" y2="25" transform="matrix(-0.20021289487700103,-0.14971571969893788,0.14971571969893788,-0.20021289487700103,103.14718180550086,28.102786659619575)" stroke-linecap="round" stroke-width="4" stroke="#4c4e52"></line><line x1="75" y1="25" x2="100" y2="50" transform="matrix(-0.19379204756573654,-0.15793872957662827,0.15793872957662827,-0.19379204756573654,98.53410180287838,58.58684062167009)" stroke-linecap="round" stroke-width="4" stroke="#4c4e52"></line><line x1="75" y1="50" x2="100" y2="75" transform="matrix(-0.19056061374200445,-0.16182290471460023,0.16182290471460023,-0.19056061374200445,94.06012215776288,88.5695425214028)" stroke-linecap="round" stroke-width="4" stroke="#4c4e52"></line><line x1="75" y1="75" x2="100" y2="100" transform="matrix(-0.190480045594687,-0.1619177329085544,0.1619177329085544,-0.190480045594687,89.9992023600366,118.33480561903363)" stroke-linecap="round" stroke-width="4" stroke="#4c4e52"></line><line x1="75" y1="100" x2="100" y2="125" transform="matrix(-0.19312793597034375,-0.15875011920573417,0.15875011920573417,-0.19312793597034375,86.53930598675998,148.11752822716542)" stroke-linecap="round" stroke-width="4" stroke="#4c4e52"></line><line x1="75" y1="125" x2="100" y2="150" transform="matrix(-0.19781542380171854,-0.15286941520836167,0.15286941520836167,-0.19781542380171854,83.78930499150064,178.07569460346795)" stroke-linecap="round" stroke-width="4" stroke="#4c4e52"></line><line x1="75" y1="150" x2="100" y2="175" transform="matrix(-0.20371866614716208,-0.14490929943665148,0.14490929943665148,-0.20371866614716208,81.77762212942082,208.28384694962085)" stroke-linecap="round" stroke-width="4" stroke="#4c4e52"></line><line x1="75" y1="175" x2="100" y2="200" transform="matrix(-0.21001045058146942,-0.1356304193260796,0.1356304193260796,-0.21001045058146942,80.44521080223865,238.7446211750575)" stroke-linecap="round" stroke-width="4" stroke="#4c4e52"></line><line x1="100" y1="0" x2="125" y2="25" transform="matrix(-0.15966969059923725,-0.19236837033136153,0.19236837033136153,-0.15966969059923725,128.05823556327218,36.13731279476863)" stroke-linecap="round" stroke-width="4" stroke="#4c4e52"></line><line x1="100" y1="25" x2="125" y2="50" transform="matrix(-0.14937423473273614,-0.2004677979078172,0.2004677979078172,-0.14937423473273614,121.78705898588967,65.65416106710704)" stroke-linecap="round" stroke-width="4" stroke="#4c4e52"></line><line x1="100" y1="50" x2="125" y2="75" transform="matrix(-0.1443972530408604,-0.2040819279462386,0.2040819279462386,-0.1443972530408604,115.98957047045688,94.48404520900561)" stroke-linecap="round" stroke-width="4" stroke="#4c4e52"></line><line x1="100" y1="75" x2="125" y2="100" transform="matrix(-0.14476843636099518,-0.20381879165963204,0.20381879165963204,-0.14476843636099518,110.95230482039415,123.09685224329569)" stroke-linecap="round" stroke-width="4" stroke="#4c4e52"></line><line x1="100" y1="100" x2="125" y2="125" transform="matrix(-0.149971780500085,-0.20002116151456156,0.20002116151456156,-0.149971780500085,106.86944463587139,151.87420597664774)" stroke-linecap="round" stroke-width="4" stroke="#4c4e52"></line><line x1="100" y1="125" x2="125" y2="150" transform="matrix(-0.15906206542003218,-0.19287109514987827,0.19287109514987827,-0.15906206542003218,103.87470677664535,181.06903219961572)" stroke-linecap="round" stroke-width="4" stroke="#4c4e52"></line><line x1="100" y1="150" x2="125" y2="175" transform="matrix(-0.17079943230326367,-0.1825583575870545,0.1825583575870545,-0.17079943230326367,102.04920302622081,210.79272297782398)" stroke-linecap="round" stroke-width="4" stroke="#4c4e52"></line><line x1="100" y1="175" x2="125" y2="200" transform="matrix(-0.18381217830558275,-0.16944935262950006,0.16944935262950006,-0.18381217830558275,101.4071164413468,241.02783560311553)" stroke-linecap="round" stroke-width="4" stroke="#4c4e52"></line><line x1="125" y1="0" x2="150" y2="25" transform="matrix(-0.1170329965535017,-0.22091463898462696,0.22091463898462696,-0.1170329965535017,150.83060403879864,44.338675317304975)" stroke-linecap="round" stroke-width="4" stroke="#4c4e52"></line><line x1="125" y1="25" x2="150" y2="50" transform="matrix(-0.1029597726732901,-0.22781414620489315,0.22781414620489315,-0.1029597726732901,143.1139382598939,72.68543657842119)" stroke-linecap="round" stroke-width="4" stroke="#4c4e52"></line><line x1="125" y1="50" x2="150" y2="75" transform="matrix(-0.0963225368150274,-0.2306988706117082,0.2306988706117082,-0.0963225368150274,136.3256693988345,100.24125326004909)" stroke-linecap="round" stroke-width="4" stroke="#4c4e52"></line><line x1="125" y1="75" x2="150" y2="100" transform="matrix(-0.09721605779393272,-0.23032376800279802,0.23032376800279802,-0.09721605779393272,130.71387824642093,127.67592315735385)" stroke-linecap="round" stroke-width="4" stroke="#4c4e52"></line><line x1="125" y1="100" x2="150" y2="125" transform="matrix(-0.10509530722539324,-0.22683689382285283,0.22683689382285283,-0.10509530722539324,126.43145418842063,155.513294963499)" stroke-linecap="round" stroke-width="4" stroke="#4c4e52"></line><line x1="125" y1="125" x2="150" y2="150" transform="matrix(-0.1188649774653539,-0.2199343473224701,0.2199343473224701,-0.1188649774653539,123.60296164464653,184.0849071583258)" stroke-linecap="round" stroke-width="4" stroke="#4c4e52"></line><line x1="125" y1="150" x2="150" y2="175" transform="matrix(-0.13696059838839944,-0.20914539079093175,0.20914539079093175,-0.13696059838839944,122.34595627487852,213.51358847186802)" stroke-linecap="round" stroke-width="4" stroke="#4c4e52"></line><line x1="125" y1="175" x2="150" y2="200" transform="matrix(-0.1574787727587443,-0.19416600147914612,0.19416600147914612,-0.1574787727587443,122.74720597698744,243.72509509564713)" stroke-linecap="round" stroke-width="4" stroke="#4c4e52"></line><line x1="150" y1="0" x2="175" y2="25" transform="matrix(-0.07693393317015501,-0.2378679674251456,0.2378679674251456,-0.07693393317015501,172.02841454733587,52.115218871213095)" stroke-linecap="round" stroke-width="4" stroke="#4c4e52"></line><line x1="150" y1="25" x2="175" y2="50" transform="matrix(-0.05952028433217698,-0.24281131718479848,0.24281131718479848,-0.05952028433217698,163.06662180954882,79.18884970498638)" stroke-linecap="round" stroke-width="4" stroke="#4c4e52"></line><line x1="150" y1="50" x2="175" y2="75" transform="matrix(-0.051427766809254954,-0.24465319290990847,0.24465319290990847,-0.051427766809254954,155.56618754963466,105.47037927343857)" stroke-linecap="round" stroke-width="4" stroke="#4c4e52"></line><line x1="150" y1="75" x2="175" y2="100" transform="matrix(-0.05278335813120724,-0.24436431225609176,0.24436431225609176,-0.05278335813120724,149.69541837391316,131.82774457809555)" stroke-linecap="round" stroke-width="4" stroke="#4c4e52"></line><line x1="150" y1="100" x2="175" y2="125" transform="matrix(-0.06307152881617578,-0.24191317089565484,0.24191317089565484,-0.06307152881617578,145.5338917068674,158.90643726236368)" stroke-linecap="round" stroke-width="4" stroke="#4c4e52"></line><line x1="150" y1="125" x2="175" y2="150" transform="matrix(-0.08117976203770934,-0.23645263000334948,0.23645263000334948,-0.08117976203770934,143.17947470566722,187.08576965572934)" stroke-linecap="round" stroke-width="4" stroke="#4c4e52"></line><line x1="150" y1="150" x2="175" y2="175" transform="matrix(-0.10537144813990768,-0.22670875130197057,0.22670875130197057,-0.10537144813990768,142.78268823616477,216.4630324093052)" stroke-linecap="round" stroke-width="4" stroke="#4c4e52"></line><line x1="150" y1="175" x2="175" y2="200" transform="matrix(-0.13330879937965076,-0.21149175872349263,0.21149175872349263,-0.13330879937965076,144.50797513853837,246.86281067625208)" stroke-linecap="round" stroke-width="4" stroke="#4c4e52"></line><line x1="175" y1="0" x2="200" y2="25" transform="matrix(-0.04189052138186939,-0.24646538137912014,0.24646538137912014,-0.04189052138186939,192.27365549186152,59.23589052585839)" stroke-linecap="round" stroke-width="4" stroke="#4c4e52"></line><line x1="175" y1="25" x2="200" y2="50" transform="matrix(-0.021717394665073917,-0.24905492319759795,0.24905492319759795,-0.021717394665073917,182.23245187979143,85.01220039948988)" stroke-linecap="round" stroke-width="4" stroke="#4c4e52"></line><line x1="175" y1="50" x2="200" y2="75" transform="matrix(-0.012411714794703457,-0.24969170858451617,0.24969170858451617,-0.012411714794703457,174.22146473747463,110.09292753426575)" stroke-linecap="round" stroke-width="4" stroke="#4c4e52"></line><line x1="175" y1="75" x2="200" y2="100" transform="matrix(-0.014088966063618166,-0.24960268635425023,0.24960268635425023,-0.014088966063618166,168.3014460809315,135.5332882219885)" stroke-linecap="round" stroke-width="4" stroke="#4c4e52"></line><line x1="175" y1="100" x2="200" y2="125" transform="matrix(-0.026306300322412594,-0.24861210461951974,0.24861210461951974,-0.026306300322412594,164.4635695407564,162.07422840243137)" stroke-linecap="round" stroke-width="4" stroke="#4c4e52"></line><line x1="175" y1="125" x2="200" y2="150" transform="matrix(-0.04805843794177794,-0.24533729138187754,0.24533729138187754,-0.04805843794177794,162.7770795490752,190.1087773510965)" stroke-linecap="round" stroke-width="4" stroke="#4c4e52"></line><line x1="175" y1="150" x2="200" y2="175" transform="matrix(-0.07760235904212502,-0.23765073926057356,0.23765073926057356,-0.07760235904212502,163.43219719055523,219.66989695570285)" stroke-linecap="round" stroke-width="4" stroke="#4c4e52"></line><line x1="175" y1="175" x2="200" y2="200" transform="matrix(-0.11230556375784145,-0.2233550096797325,0.2233550096797325,-0.11230556375784145,166.67822888964542,250.4363575195451)" stroke-linecap="round" stroke-width="4" stroke="#4c4e52"></line></svg>