<svg class="generator__canvas" viewBox="0 0 200 200" xmlns="http://www.w3.org/2000/svg" version="1.1" xmlns:xlink="http://www.w3.org/1999/xlink" xmlns:svgjs="http://svgjs.dev/svgjs"><circle r="5" cx="5" cy="5" fill="#4c4e52" transform="matrix(0.29723474782642145,0,0,0.29723474782642145,3.5138262608678925,3.5138262608678925)"></circle><circle r="5" cx="5" cy="15" fill="#4c4e52" transform="matrix(0.3020161896369646,0,0,0.3020161896369646,3.489919051815177,10.469757155445532)"></circle><circle r="5" cx="5" cy="25" fill="#4c4e52" transform="matrix(0.295925784187396,0,0,0.295925784187396,3.52037107906302,17.6018553953151)"></circle><circle r="5" cx="5" cy="35" fill="#4c4e52" transform="matrix(0.2814757492695532,0,0,0.2814757492695532,3.5926212536522337,25.148348775565637)"></circle><circle r="5" cx="5" cy="45" fill="#4c4e52" transform="matrix(0.2633805771860138,0,0,0.2633805771860138,3.683097114069931,33.14787402662938)"></circle><circle r="5" cx="5" cy="55" fill="#4c4e52" transform="matrix(0.24752317433193405,0,0,0.24752317433193405,3.76238412834033,41.386225411743624)"></circle><circle r="5" cx="5" cy="65" fill="#4c4e52" transform="matrix(0.24055824173426762,0,0,0.24055824173426762,3.7972087913286616,49.3637142872726)"></circle><circle r="5" cx="5" cy="75" fill="#4c4e52" transform="matrix(0.2468620048890565,0,0,0.2468620048890565,3.7656899755547175,56.485349633320766)"></circle><circle r="5" cx="5" cy="85" fill="#4c4e52" transform="matrix(0.2662085616193998,0,0,0.2662085616193998,3.668957191903001,62.37227226235102)"></circle><circle r="5" cx="5" cy="95" fill="#4c4e52" transform="matrix(0.29998387857993314,0,0,0.29998387857993314,3.500080607100334,66.50153153490635)"></circle><circle r="5" cx="5" cy="105" fill="#4c4e52" transform="matrix(0.3535706662605438,0,0,0.3535706662605438,3.232146668697281,67.8750800426429)"></circle><circle r="5" cx="5" cy="115" fill="#4c4e52" transform="matrix(0.4260158851759823,0,0,0.4260158851759823,2.8699205741200884,66.00817320476203)"></circle><circle r="5" cx="5" cy="125" fill="#4c4e52" transform="matrix(0.5065711697698121,0,0,0.5065711697698121,2.4671441511509395,61.678603778773486)"></circle><circle r="5" cx="5" cy="135" fill="#4c4e52" transform="matrix(0.5780750182955928,0,0,0.5780750182955928,2.109624908522036,56.95987253009497)"></circle><circle r="5" cx="5" cy="145" fill="#4c4e52" transform="matrix(0.6232640260671212,0,0,0.6232640260671212,1.8836798696643942,54.626716220267426)"></circle><circle r="5" cx="5" cy="155" fill="#4c4e52" transform="matrix(0.6309392540331029,0,0,0.6309392540331029,1.8453037298344857,57.20441562486904)"></circle><circle r="5" cx="5" cy="165" fill="#4c4e52" transform="matrix(0.5994455136666788,0,0,0.5994455136666788,2.0027724316666062,66.091490244998)"></circle><circle r="5" cx="5" cy="175" fill="#4c4e52" transform="matrix(0.5356970846779524,0,0,0.5356970846779524,2.321514576610238,81.25301018135833)"></circle><circle r="5" cx="5" cy="185" fill="#4c4e52" transform="matrix(0.4519768635552974,0,0,0.4519768635552974,2.7401156822235126,101.38428024226998)"></circle><circle r="5" cx="5" cy="195" fill="#4c4e52" transform="matrix(0.3646375947782218,0,0,0.3646375947782218,3.176812026108891,123.89566901824675)"></circle><circle r="5" cx="15" cy="5" fill="#4c4e52" transform="matrix(0.32656881913173963,0,0,0.32656881913173963,10.101467713023904,3.3671559043413017)"></circle><circle r="5" cx="15" cy="15" fill="#4c4e52" transform="matrix(0.33439528874862684,0,0,0.33439528874862684,9.984070668770597,9.984070668770597)"></circle><circle r="5" cx="15" cy="25" fill="#4c4e52" transform="matrix(0.32937829583633405,0,0,0.32937829583633405,10.05932556245499,16.76554260409165)"></circle><circle r="5" cx="15" cy="35" fill="#4c4e52" transform="matrix(0.3138281952135422,0,0,0.3138281952135422,10.292577071796867,24.016013167526022)"></circle><circle r="5" cx="15" cy="45" fill="#4c4e52" transform="matrix(0.29498343659607806,0,0,0.29498343659607806,10.57524845105883,31.725745353176485)"></circle><circle r="5" cx="15" cy="55" fill="#4c4e52" transform="matrix(0.27944400245423395,0,0,0.27944400245423395,10.80833996318649,39.63057986501713)"></circle><circle r="5" cx="15" cy="65" fill="#4c4e52" transform="matrix(0.2727518170722257,0,0,0.2727518170722257,10.908722743916615,47.27113189030533)"></circle><circle r="5" cx="15" cy="75" fill="#4c4e52" transform="matrix(0.27745265676041164,0,0,0.27745265676041164,10.838210148593825,54.191050742969125)"></circle><circle r="5" cx="15" cy="85" fill="#4c4e52" transform="matrix(0.29296633291532476,0,0,0.29296633291532476,10.605505006270128,60.09786170219739)"></circle><circle r="5" cx="15" cy="95" fill="#4c4e52" transform="matrix(0.3204642685410525,0,0,0.3204642685410525,10.193035971884214,64.55589448860002)"></circle><circle r="5" cx="15" cy="105" fill="#4c4e52" transform="matrix(0.36446358701946824,0,0,0.36446358701946824,9.533046194707977,66.73132336295583)"></circle><circle r="5" cx="15" cy="115" fill="#4c4e52" transform="matrix(0.42368705664626083,0,0,0.42368705664626083,8.644694150306087,66.27598848568)"></circle><circle r="5" cx="15" cy="125" fill="#4c4e52" transform="matrix(0.48805139814866394,0,0,0.48805139814866394,7.679229027770041,63.993575231417005)"></circle><circle r="5" cx="15" cy="135" fill="#4c4e52" transform="matrix(0.5420070019079235,0,0,0.5420070019079235,6.869894971381147,61.82905474243033)"></circle><circle r="5" cx="15" cy="145" fill="#4c4e52" transform="matrix(0.5703653827090585,0,0,0.5703653827090585,6.444519259364123,62.29701950718652)"></circle><circle r="5" cx="15" cy="155" fill="#4c4e52" transform="matrix(0.5636427257855458,0,0,0.5636427257855458,6.545359113216813,67.6353775032404)"></circle><circle r="5" cx="15" cy="165" fill="#4c4e52" transform="matrix(0.5211208850051021,0,0,0.5211208850051021,7.183186724923468,79.01505397415815)"></circle><circle r="5" cx="15" cy="175" fill="#4c4e52" transform="matrix(0.4507538729222189,0,0,0.4507538729222189,8.238691906166716,96.11807223861169)"></circle><circle r="5" cx="15" cy="185" fill="#4c4e52" transform="matrix(0.3660663440737518,0,0,0.3660663440737518,9.509004838893723,117.2777263463559)"></circle><circle r="5" cx="15" cy="195" fill="#4c4e52" transform="matrix(0.2836027670103121,0,0,0.2836027670103121,10.745958494845318,139.69746043298915)"></circle><circle r="5" cx="25" cy="5" fill="#4c4e52" transform="matrix(0.35057485239685376,0,0,0.35057485239685376,16.235628690078656,3.2471257380157312)"></circle><circle r="5" cx="25" cy="15" fill="#4c4e52" transform="matrix(0.36810118292810967,0,0,0.36810118292810967,15.797470426797258,9.478482256078355)"></circle><circle r="5" cx="25" cy="25" fill="#4c4e52" transform="matrix(0.37246705688487136,0,0,0.37246705688487136,15.688323577878215,15.688323577878215)"></circle><circle r="5" cx="25" cy="35" fill="#4c4e52" transform="matrix(0.3641815488246769,0,0,0.3641815488246769,15.895461279383078,22.253645791136307)"></circle><circle r="5" cx="25" cy="45" fill="#4c4e52" transform="matrix(0.3510714630193628,0,0,0.3510714630193628,16.22321342451593,29.201784164128675)"></circle><circle r="5" cx="25" cy="55" fill="#4c4e52" transform="matrix(0.3409712087056816,0,0,0.3409712087056816,16.47571978235796,36.24658352118752)"></circle><circle r="5" cx="25" cy="65" fill="#4c4e52" transform="matrix(0.3369497922007584,0,0,0.3369497922007584,16.57625519498104,43.0982635069507)"></circle><circle r="5" cx="25" cy="75" fill="#4c4e52" transform="matrix(0.3397172488931871,0,0,0.3397172488931871,16.507068777670323,49.521206333010966)"></circle><circle r="5" cx="25" cy="85" fill="#4c4e52" transform="matrix(0.34888418543129873,0,0,0.34888418543129873,16.27789536421753,55.344844238339604)"></circle><circle r="5" cx="25" cy="95" fill="#4c4e52" transform="matrix(0.36526277816685143,0,0,0.36526277816685143,15.868430545828714,60.30003607414911)"></circle><circle r="5" cx="25" cy="105" fill="#4c4e52" transform="matrix(0.3929564078716889,0,0,0.3929564078716889,15.176089803207777,63.73957717347267)"></circle><circle r="5" cx="25" cy="115" fill="#4c4e52" transform="matrix(0.4317430803440165,0,0,0.4317430803440165,14.206422991399588,65.3495457604381)"></circle><circle r="5" cx="25" cy="125" fill="#4c4e52" transform="matrix(0.4738061928151199,0,0,0.4738061928151199,13.154845179622003,65.77422589811002)"></circle><circle r="5" cx="25" cy="135" fill="#4c4e52" transform="matrix(0.5064595119409965,0,0,0.5064595119409965,12.338512201475089,66.62796588796547)"></circle><circle r="5" cx="25" cy="145" fill="#4c4e52" transform="matrix(0.5170489130108796,0,0,0.5170489130108796,12.07377717472801,70.02790761342246)"></circle><circle r="5" cx="25" cy="155" fill="#4c4e52" transform="matrix(0.49767740613643496,0,0,0.49767740613643496,12.558064846589126,77.86000204885258)"></circle><circle r="5" cx="25" cy="165" fill="#4c4e52" transform="matrix(0.4482397223609187,0,0,0.4482397223609187,13.794006940977033,91.04044581044842)"></circle><circle r="5" cx="25" cy="175" fill="#4c4e52" transform="matrix(0.376750639657102,0,0,0.376750639657102,15.58123400857245,109.06863806000716)"></circle><circle r="5" cx="25" cy="185" fill="#4c4e52" transform="matrix(0.2968061611730113,0,0,0.2968061611730113,17.579845970674718,130.0908601829929)"></circle><circle r="5" cx="25" cy="195" fill="#4c4e52" transform="matrix(0.22431246276995623,0,0,0.22431246276995623,19.392188430751094,151.25906975985853)"></circle><circle r="5" cx="35" cy="5" fill="#4c4e52" transform="matrix(0.36207633154130753,0,0,0.36207633154130753,22.327328396054234,3.1896183422934623)"></circle><circle r="5" cx="35" cy="15" fill="#4c4e52" transform="matrix(0.39519090148648955,0,0,0.39519090148648955,21.168318447972865,9.072136477702657)"></circle><circle r="5" cx="35" cy="25" fill="#4c4e52" transform="matrix(0.416659620050045,0,0,0.416659620050045,20.416913298248424,14.583509498748876)"></circle><circle r="5" cx="35" cy="35" fill="#4c4e52" transform="matrix(0.42405281740558126,0,0,0.42405281740558126,20.158151390804655,20.158151390804655)"></circle><circle r="5" cx="35" cy="45" fill="#4c4e52" transform="matrix(0.423193556287285,0,0,0.423193556287285,20.188225529945026,25.956289967072173)"></circle><circle r="5" cx="35" cy="55" fill="#4c4e52" transform="matrix(0.42152967780072087,0,0,0.42152967780072087,20.24646127697477,31.81586772096035)"></circle><circle r="5" cx="35" cy="65" fill="#4c4e52" transform="matrix(0.4208722784536253,0,0,0.4208722784536253,20.269470254123114,37.64330190051436)"></circle><circle r="5" cx="35" cy="75" fill="#4c4e52" transform="matrix(0.4213246619570053,0,0,0.4213246619570053,20.253636831504814,43.400650353224606)"></circle><circle r="5" cx="35" cy="85" fill="#4c4e52" transform="matrix(0.4228202291573804,0,0,0.4228202291573804,20.201291979491685,49.060280521622666)"></circle><circle r="5" cx="35" cy="95" fill="#4c4e52" transform="matrix(0.4260317572249484,0,0,0.4260317572249484,20.088888497126806,54.5269830636299)"></circle><circle r="5" cx="35" cy="105" fill="#4c4e52" transform="matrix(0.43474582036969667,0,0,0.43474582036969667,19.783896287060617,59.35168886118185)"></circle><circle r="5" cx="35" cy="115" fill="#4c4e52" transform="matrix(0.45072810278336695,0,0,0.45072810278336695,19.224516402582157,63.1662681799128)"></circle><circle r="5" cx="35" cy="125" fill="#4c4e52" transform="matrix(0.46967404655680045,0,0,0.46967404655680045,18.561408370511984,66.29074418039994)"></circle><circle r="5" cx="35" cy="135" fill="#4c4e52" transform="matrix(0.4823652601226119,0,0,0.4823652601226119,18.117215895708583,69.8806898834474)"></circle><circle r="5" cx="35" cy="145" fill="#4c4e52" transform="matrix(0.4785455959877879,0,0,0.4785455959877879,18.250904140427423,75.61088858177075)"></circle><circle r="5" cx="35" cy="155" fill="#4c4e52" transform="matrix(0.451261533573841,0,0,0.451261533573841,19.205846324915562,85.05446229605464)"></circle><circle r="5" cx="35" cy="165" fill="#4c4e52" transform="matrix(0.4000285740204207,0,0,0.4000285740204207,20.998999909285274,98.99528528663059)"></circle><circle r="5" cx="35" cy="175" fill="#4c4e52" transform="matrix(0.3318261721148143,0,0,0.3318261721148143,23.3860839759815,116.9304198799075)"></circle><circle r="5" cx="35" cy="185" fill="#4c4e52" transform="matrix(0.2595902706863702,0,0,0.2595902706863702,25.914340525977043,136.9757999230215)"></circle><circle r="5" cx="35" cy="195" fill="#4c4e52" transform="matrix(0.1992203207568036,0,0,0.1992203207568036,28.027288773511874,156.15203745242331)"></circle><circle r="5" cx="45" cy="5" fill="#4c4e52" transform="matrix(0.3617767533616206,0,0,0.3617767533616206,28.720046098727074,3.191116233191897)"></circle><circle r="5" cx="45" cy="15" fill="#4c4e52" transform="matrix(0.4138096116715514,0,0,0.4138096116715514,26.378567474780187,8.792855824926729)"></circle><circle r="5" cx="45" cy="25" fill="#4c4e52" transform="matrix(0.4567535450234474,0,0,0.4567535450234474,24.446090473944867,13.581161374413815)"></circle><circle r="5" cx="45" cy="35" fill="#4c4e52" transform="matrix(0.48417279647605244,0,0,0.48417279647605244,23.21222415857764,18.053952123338163)"></circle><circle r="5" cx="45" cy="45" fill="#4c4e52" transform="matrix(0.49808767037322665,0,0,0.49808767037322665,22.586054833204802,22.586054833204802)"></circle><circle r="5" cx="45" cy="55" fill="#4c4e52" transform="matrix(0.5052897520222797,0,0,0.5052897520222797,22.261961158997416,27.20906363877462)"></circle><circle r="5" cx="45" cy="65" fill="#4c4e52" transform="matrix(0.5080954427831657,0,0,0.5080954427831657,22.135705074757546,31.973796219094233)"></circle><circle r="5" cx="45" cy="75" fill="#4c4e52" transform="matrix(0.5061646828944536,0,0,0.5061646828944536,22.222589269749587,37.03764878291598)"></circle><circle r="5" cx="45" cy="85" fill="#4c4e52" transform="matrix(0.49978847363050194,0,0,0.49978847363050194,22.509518686627413,42.51797974140734)"></circle><circle r="5" cx="45" cy="95" fill="#4c4e52" transform="matrix(0.49019158989252537,0,0,0.49019158989252537,22.941378454836357,48.43179896021009)"></circle><circle r="5" cx="45" cy="105" fill="#4c4e52" transform="matrix(0.48150065635814343,0,0,0.48150065635814343,23.332470463883546,54.44243108239494)"></circle><circle r="5" cx="45" cy="115" fill="#4c4e52" transform="matrix(0.4780793003158991,0,0,0.4780793003158991,23.48643148578454,60.0208804636716)"></circle><circle r="5" cx="45" cy="125" fill="#4c4e52" transform="matrix(0.4792370824107798,0,0,0.4792370824107798,23.43433129151491,65.09536469865253)"></circle><circle r="5" cx="45" cy="135" fill="#4c4e52" transform="matrix(0.4789084962714551,0,0,0.4789084962714551,23.44911766778452,70.34735300335356)"></circle><circle r="5" cx="45" cy="145" fill="#4c4e52" transform="matrix(0.46857928956957556,0,0,0.46857928956957556,23.9139319693691,77.05600301241154)"></circle><circle r="5" cx="45" cy="155" fill="#4c4e52" transform="matrix(0.44124465366004595,0,0,0.44124465366004595,25.14399058529793,86.60707868269287)"></circle><circle r="5" cx="45" cy="165" fill="#4c4e52" transform="matrix(0.39480621681272005,0,0,0.39480621681272005,27.233720243427598,99.8569742259012)"></circle><circle r="5" cx="45" cy="175" fill="#4c4e52" transform="matrix(0.3339373254772916,0,0,0.3339373254772916,29.972820353521875,116.56096804147397)"></circle><circle r="5" cx="45" cy="185" fill="#4c4e52" transform="matrix(0.2700346486026166,0,0,0.2700346486026166,32.84844081288225,135.04359000851593)"></circle><circle r="5" cx="45" cy="195" fill="#4c4e52" transform="matrix(0.2203961466559949,0,0,0.2203961466559949,35.08217340048023,152.02275140208098)"></circle><circle r="5" cx="55" cy="5" fill="#4c4e52" transform="matrix(0.3568526984881193,0,0,0.3568526984881193,35.37310158315344,3.2157365075594035)"></circle><circle r="5" cx="55" cy="15" fill="#4c4e52" transform="matrix(0.4261153044154371,0,0,0.4261153044154371,31.56365825715096,8.608270433768443)"></circle><circle r="5" cx="55" cy="25" fill="#4c4e52" transform="matrix(0.48829926230296933,0,0,0.48829926230296933,28.143540573336686,12.792518442425767)"></circle><circle r="5" cx="55" cy="35" fill="#4c4e52" transform="matrix(0.5333513904150537,0,0,0.5333513904150537,25.665673527172043,16.332701335473118)"></circle><circle r="5" cx="55" cy="45" fill="#4c4e52" transform="matrix(0.5604494919027366,0,0,0.5604494919027366,24.175277945349485,19.779772864376852)"></circle><circle r="5" cx="55" cy="55" fill="#4c4e52" transform="matrix(0.5755316328049069,0,0,0.5755316328049069,23.34576019573012,23.34576019573012)"></circle><circle r="5" cx="55" cy="65" fill="#4c4e52" transform="matrix(0.5813809503412048,0,0,0.5813809503412048,23.024047731233733,27.210238227821684)"></circle><circle r="5" cx="55" cy="75" fill="#4c4e52" transform="matrix(0.5773568261532602,0,0,0.5773568261532602,23.24537456157069,31.69823803850548)"></circle><circle r="5" cx="55" cy="85" fill="#4c4e52" transform="matrix(0.5640884642936432,0,0,0.5640884642936432,23.97513446384962,37.052480535040324)"></circle><circle r="5" cx="55" cy="95" fill="#4c4e52" transform="matrix(0.5441572031878519,0,0,0.5441572031878519,25.071353824668147,43.30506569715407)"></circle><circle r="5" cx="55" cy="105" fill="#4c4e52" transform="matrix(0.5229506724175041,0,0,0.5229506724175041,26.237713017037272,50.090179396162064)"></circle><circle r="5" cx="55" cy="115" fill="#4c4e52" transform="matrix(0.5071010541713424,0,0,0.5071010541713424,27.109442020576164,56.68337877029562)"></circle><circle r="5" cx="55" cy="125" fill="#4c4e52" transform="matrix(0.49914190533684166,0,0,0.49914190533684166,27.54719520647371,62.60726183289479)"></circle><circle r="5" cx="55" cy="135" fill="#4c4e52" transform="matrix(0.4955989122219406,0,0,0.4955989122219406,27.74205982779327,68.09414685003802)"></circle><circle r="5" cx="55" cy="145" fill="#4c4e52" transform="matrix(0.488882565814695,0,0,0.488882565814695,28.111458880191773,74.11202795686923)"></circle><circle r="5" cx="55" cy="155" fill="#4c4e52" transform="matrix(0.4708773857231897,0,0,0.4708773857231897,29.101743785224567,82.0140052129056)"></circle><circle r="5" cx="55" cy="165" fill="#4c4e52" transform="matrix(0.4366798559606956,0,0,0.4366798559606956,30.982607922161744,92.94782376648523)"></circle><circle r="5" cx="55" cy="175" fill="#4c4e52" transform="matrix(0.3875413568480771,0,0,0.3875413568480771,33.68522537335576,107.18026255158651)"></circle><circle r="5" cx="55" cy="185" fill="#4c4e52" transform="matrix(0.33303011326848087,0,0,0.33303011326848087,36.68334377023355,123.38942904533104)"></circle><circle r="5" cx="55" cy="195" fill="#4c4e52" transform="matrix(0.2920848427343574,0,0,0.2920848427343574,38.93533364961034,138.0434556668003)"></circle><circle r="5" cx="65" cy="5" fill="#4c4e52" transform="matrix(0.3529306386103837,0,0,0.3529306386103837,42.05950849032506,3.2353468069480815)"></circle><circle r="5" cx="65" cy="15" fill="#4c4e52" transform="matrix(0.4323557076385908,0,0,0.4323557076385908,36.89687900349159,8.514664385421138)"></circle><circle r="5" cx="65" cy="25" fill="#4c4e52" transform="matrix(0.50610216736399,0,0,0.50610216736399,32.103359121340645,12.34744581590025)"></circle><circle r="5" cx="65" cy="35" fill="#4c4e52" transform="matrix(0.5621021096372595,0,0,0.5621021096372595,28.463362873578134,15.326426162695917)"></circle><circle r="5" cx="65" cy="45" fill="#4c4e52" transform="matrix(0.5978370872982263,0,0,0.5978370872982263,26.140589325615295,18.097331071579816)"></circle><circle r="5" cx="65" cy="55" fill="#4c4e52" transform="matrix(0.6184427193142459,0,0,0.6184427193142459,24.801223244574018,20.98565043771648)"></circle><circle r="5" cx="65" cy="65" fill="#4c4e52" transform="matrix(0.6266587171760897,0,0,0.6266587171760897,24.26718338355417,24.26718338355417)"></circle><circle r="5" cx="65" cy="75" fill="#4c4e52" transform="matrix(0.6212812703031965,0,0,0.6212812703031965,24.616717430292226,28.40390472726027)"></circle><circle r="5" cx="65" cy="85" fill="#4c4e52" transform="matrix(0.6027989376638065,0,0,0.6027989376638065,25.818069051852575,33.762090298576446)"></circle><circle r="5" cx="65" cy="95" fill="#4c4e52" transform="matrix(0.5755409328403721,0,0,0.5755409328403721,27.589839365375816,40.32361138016465)"></circle><circle r="5" cx="65" cy="105" fill="#4c4e52" transform="matrix(0.5472212578989631,0,0,0.5472212578989631,29.430618236567398,47.54176792060887)"></circle><circle r="5" cx="65" cy="115" fill="#4c4e52" transform="matrix(0.526437899458974,0,0,0.526437899458974,30.781536535166687,54.45964156221799)"></circle><circle r="5" cx="65" cy="125" fill="#4c4e52" transform="matrix(0.5182966066162642,0,0,0.5182966066162642,31.31072056994283,60.21292417296698)"></circle><circle r="5" cx="65" cy="135" fill="#4c4e52" transform="matrix(0.5212036789871021,0,0,0.5212036789871021,31.121760865838368,64.63750333674122)"></circle><circle r="5" cx="65" cy="145" fill="#4c4e52" transform="matrix(0.5276685506596202,0,0,0.5276685506596202,30.70154420712469,68.48806015435508)"></circle><circle r="5" cx="65" cy="155" fill="#4c4e52" transform="matrix(0.5275566594276858,0,0,0.5275566594276858,30.70881713720042,73.22871778870869)"></circle><circle r="5" cx="65" cy="165" fill="#4c4e52" transform="matrix(0.5122902236466528,0,0,0.5122902236466528,31.70113546296757,80.47211309830229)"></circle><circle r="5" cx="65" cy="175" fill="#4c4e52" transform="matrix(0.47909434184453076,0,0,0.47909434184453076,33.8588677801055,91.15849017720711)"></circle><circle r="5" cx="65" cy="185" fill="#4c4e52" transform="matrix(0.43596466527285643,0,0,0.43596466527285643,36.66229675726433,104.34653692452156)"></circle><circle r="5" cx="65" cy="195" fill="#4c4e52" transform="matrix(0.40209710954419653,0,0,0.40209710954419653,38.86368787962722,116.59106363888168)"></circle><circle r="5" cx="75" cy="5" fill="#4c4e52" transform="matrix(0.3542766110579163,0,0,0.3542766110579163,48.42925417065628,3.2286169447104185)"></circle><circle r="5" cx="75" cy="15" fill="#4c4e52" transform="matrix(0.4345458920921767,0,0,0.4345458920921767,42.40905809308675,8.48181161861735)"></circle><circle r="5" cx="75" cy="25" fill="#4c4e52" transform="matrix(0.5091932469847261,0,0,0.5091932469847261,36.81050647614554,12.270168825381846)"></circle><circle r="5" cx="75" cy="35" fill="#4c4e52" transform="matrix(0.5662015988172641,0,0,0.5662015988172641,32.534880088705194,15.182944041395757)"></circle><circle r="5" cx="75" cy="45" fill="#4c4e52" transform="matrix(0.6031650026734376,0,0,0.6031650026734376,29.76262479949218,17.857574879695306)"></circle><circle r="5" cx="75" cy="55" fill="#4c4e52" transform="matrix(0.6251854218814432,0,0,0.6251854218814432,28.111093358891758,20.614801796520624)"></circle><circle r="5" cx="75" cy="65" fill="#4c4e52" transform="matrix(0.6346246192405295,0,0,0.6346246192405295,27.40315355696029,23.749399749365587)"></circle><circle r="5" cx="75" cy="75" fill="#4c4e52" transform="matrix(0.6289436270955782,0,0,0.6289436270955782,27.829227967831635,27.829227967831635)"></circle><circle r="5" cx="75" cy="85" fill="#4c4e52" transform="matrix(0.6076038517539628,0,0,0.6076038517539628,29.429711118452786,33.353672600913164)"></circle><circle r="5" cx="75" cy="95" fill="#4c4e52" transform="matrix(0.5759826503978329,0,0,0.5759826503978329,31.80130122016253,40.28164821220587)"></circle><circle r="5" cx="75" cy="105" fill="#4c4e52" transform="matrix(0.5445915697279304,0,0,0.5445915697279304,34.15563227040522,47.8178851785673)"></circle><circle r="5" cx="75" cy="115" fill="#4c4e52" transform="matrix(0.5245936282340046,0,0,0.5245936282340046,35.65547788244966,54.67173275308947)"></circle><circle r="5" cx="75" cy="125" fill="#4c4e52" transform="matrix(0.5229332704479773,0,0,0.5229332704479773,35.7800047164017,59.63334119400284)"></circle><circle r="5" cx="75" cy="135" fill="#4c4e52" transform="matrix(0.5391543986048345,0,0,0.5391543986048345,34.563420104637416,62.214156188347346)"></circle><circle r="5" cx="75" cy="145" fill="#4c4e52" transform="matrix(0.5652027462302873,0,0,0.5652027462302873,32.60979403272845,63.04560179660834)"></circle><circle r="5" cx="75" cy="155" fill="#4c4e52" transform="matrix(0.5883943871577283,0,0,0.5883943871577283,30.870420963170375,63.79886999055212)"></circle><circle r="5" cx="75" cy="165" fill="#4c4e52" transform="matrix(0.5962128063634609,0,0,0.5962128063634609,30.284039522740436,66.62488695002895)"></circle><circle r="5" cx="75" cy="175" fill="#4c4e52" transform="matrix(0.5820784666195142,0,0,0.5820784666195142,31.34411500353643,73.13626834158501)"></circle><circle r="5" cx="75" cy="185" fill="#4c4e52" transform="matrix(0.5523068786432472,0,0,0.5523068786432472,33.57698410175646,82.82322745099925)"></circle><circle r="5" cx="75" cy="195" fill="#4c4e52" transform="matrix(0.5246400034582411,0,0,0.5246400034582411,35.651999740631915,92.69519932564297)"></circle><circle r="5" cx="85" cy="5" fill="#4c4e52" transform="matrix(0.36664810919976454,0,0,0.36664810919976454,53.83491071802001,3.1667594540011774)"></circle><circle r="5" cx="85" cy="15" fill="#4c4e52" transform="matrix(0.43764440092532253,0,0,0.43764440092532253,47.80022592134758,8.435333986120163)"></circle><circle r="5" cx="85" cy="25" fill="#4c4e52" transform="matrix(0.5012442929500944,0,0,0.5012442929500944,42.394235099241975,12.46889267624764)"></circle><circle r="5" cx="85" cy="35" fill="#4c4e52" transform="matrix(0.5477895785988016,0,0,0.5477895785988016,38.437885819101865,15.827364749041944)"></circle><circle r="5" cx="85" cy="45" fill="#4c4e52" transform="matrix(0.5769941902894856,0,0,0.5769941902894856,35.955493825393724,19.035261436973148)"></circle><circle r="5" cx="85" cy="55" fill="#4c4e52" transform="matrix(0.5948913970283028,0,0,0.5948913970283028,34.43423125259426,22.280973163443342)"></circle><circle r="5" cx="85" cy="65" fill="#4c4e52" transform="matrix(0.6030677968145606,0,0,0.6030677968145606,33.73923727076235,25.80059320705356)"></circle><circle r="5" cx="85" cy="75" fill="#4c4e52" transform="matrix(0.5970496945981745,0,0,0.5970496945981745,34.25077595915517,30.221272905136914)"></circle><circle r="5" cx="85" cy="85" fill="#4c4e52" transform="matrix(0.5752237018596024,0,0,0.5752237018596024,36.105985341933795,36.105985341933795)"></circle><circle r="5" cx="85" cy="95" fill="#4c4e52" transform="matrix(0.5429963618158644,0,0,0.5429963618158644,38.84530924565153,43.41534562749288)"></circle><circle r="5" cx="85" cy="105" fill="#4c4e52" transform="matrix(0.5119044717314071,0,0,0.5119044717314071,41.4881199028304,51.250030468202254)"></circle><circle r="5" cx="85" cy="115" fill="#4c4e52" transform="matrix(0.49557184721980524,0,0,0.49557184721980524,42.87639298631655,58.009237569722394)"></circle><circle r="5" cx="85" cy="125" fill="#4c4e52" transform="matrix(0.5032367968473163,0,0,0.5032367968473163,42.22487226797812,62.095400394085466)"></circle><circle r="5" cx="85" cy="135" fill="#4c4e52" transform="matrix(0.5350604443654167,0,0,0.5350604443654167,39.51986222893958,62.766840010668744)"></circle><circle r="5" cx="85" cy="145" fill="#4c4e52" transform="matrix(0.5821165240454356,0,0,0.5821165240454356,35.52009545613798,60.593104013411846)"></circle><circle r="5" cx="85" cy="155" fill="#4c4e52" transform="matrix(0.6292583002352501,0,0,0.6292583002352501,31.513044480003742,57.464963463536236)"></circle><circle r="5" cx="85" cy="165" fill="#4c4e52" transform="matrix(0.6606567728725778,0,0,0.6606567728725778,28.844174305830883,55.99163247602465)"></circle><circle r="5" cx="85" cy="175" fill="#4c4e52" transform="matrix(0.6668267221963595,0,0,0.6668267221963595,28.319728613309444,58.30532361563708)"></circle><circle r="5" cx="85" cy="185" fill="#4c4e52" transform="matrix(0.6515699078701506,0,0,0.6515699078701506,29.6165578310372,64.45956704402215)"></circle><circle r="5" cx="85" cy="195" fill="#4c4e52" transform="matrix(0.6300181285918233,0,0,0.6300181285918233,31.44845906969502,72.14646492459447)"></circle><circle r="5" cx="95" cy="5" fill="#4c4e52" transform="matrix(0.3943114628444817,0,0,0.3943114628444817,57.54041102977424,3.0284426857775912)"></circle><circle r="5" cx="95" cy="15" fill="#4c4e52" transform="matrix(0.44718032872390756,0,0,0.44718032872390756,52.517868771228784,8.292295069141387)"></circle><circle r="5" cx="95" cy="25" fill="#4c4e52" transform="matrix(0.48905558553937223,0,0,0.48905558553937223,48.53971937375964,12.773610361515694)"></circle><circle r="5" cx="95" cy="35" fill="#4c4e52" transform="matrix(0.5147301777620239,0,0,0.5147301777620239,46.10063311260773,16.984443778329165)"></circle><circle r="5" cx="95" cy="45" fill="#4c4e52" transform="matrix(0.5277591719939275,0,0,0.5277591719939275,44.86287866057688,21.25083726027326)"></circle><circle r="5" cx="95" cy="55" fill="#4c4e52" transform="matrix(0.535751384619189,0,0,0.535751384619189,44.10361846117704,25.5336738459446)"></circle><circle r="5" cx="95" cy="65" fill="#4c4e52" transform="matrix(0.5389908522766598,0,0,0.5389908522766598,43.795869033717324,29.965594602017113)"></circle><circle r="5" cx="95" cy="75" fill="#4c4e52" transform="matrix(0.5313436539179697,0,0,0.5313436539179697,44.52235287779288,35.14922595615227)"></circle><circle r="5" cx="95" cy="85" fill="#4c4e52" transform="matrix(0.5102862519585125,0,0,0.5102862519585125,46.52280606394131,41.62566858352643)"></circle><circle r="5" cx="95" cy="95" fill="#4c4e52" transform="matrix(0.4805565487461505,0,0,0.4805565487461505,49.3471278691157,49.3471278691157)"></circle><circle r="5" cx="95" cy="105" fill="#4c4e52" transform="matrix(0.45313355439882375,0,0,0.45313355439882375,51.952312332111745,57.420976788123504)"></circle><circle r="5" cx="95" cy="115" fill="#4c4e52" transform="matrix(0.4418103365960179,0,0,0.4418103365960179,53.028018023378294,64.19181129145794)"></circle><circle r="5" cx="95" cy="125" fill="#4c4e52" transform="matrix(0.4577935911556743,0,0,0.4577935911556743,51.509608840210944,67.77580110554071)"></circle><circle r="5" cx="95" cy="135" fill="#4c4e52" transform="matrix(0.5026274105889623,0,0,0.5026274105889623,47.25039599404858,67.14529957049008)"></circle><circle r="5" cx="95" cy="145" fill="#4c4e52" transform="matrix(0.566787970527915,0,0,0.566787970527915,41.15514279984808,62.815744273452324)"></circle><circle r="5" cx="95" cy="155" fill="#4c4e52" transform="matrix(0.6336193227286977,0,0,0.6336193227286977,34.80616434077372,56.78900497705186)"></circle><circle r="5" cx="95" cy="165" fill="#4c4e52" transform="matrix(0.6856979555439231,0,0,0.6856979555439231,29.858694223327305,51.85983733525269)"></circle><circle r="5" cx="95" cy="175" fill="#4c4e52" transform="matrix(0.7113073557101234,0,0,0.7113073557101234,27.425801207538285,50.52121275072841)"></circle><circle r="5" cx="95" cy="185" fill="#4c4e52" transform="matrix(0.710716490089305,0,0,0.710716490089305,27.48193344151602,53.51744933347857)"></circle><circle r="5" cx="95" cy="195" fill="#4c4e52" transform="matrix(0.6959721457716239,0,0,0.6959721457716239,28.882646151695724,59.285431574533334)"></circle><circle r="5" cx="105" cy="5" fill="#4c4e52" transform="matrix(0.43744453310803455,0,0,0.43744453310803455,59.06832402365637,2.8127773344598275)"></circle><circle r="5" cx="105" cy="15" fill="#4c4e52" transform="matrix(0.4667452967126267,0,0,0.4667452967126267,55.9917438451742,7.998820549310599)"></circle><circle r="5" cx="105" cy="25" fill="#4c4e52" transform="matrix(0.48008731258983356,0,0,0.48008731258983356,54.59083217806748,12.997817185254162)"></circle><circle r="5" cx="105" cy="35" fill="#4c4e52" transform="matrix(0.47814991650990657,0,0,0.47814991650990657,54.79425876645981,18.26475292215327)"></circle><circle r="5" cx="105" cy="45" fill="#4c4e52" transform="matrix(0.4693044930279652,0,0,0.4693044930279652,55.723028232063655,23.88129781374157)"></circle><circle r="5" cx="105" cy="55" fill="#4c4e52" transform="matrix(0.46267493608535043,0,0,0.46267493608535043,56.419131711038204,29.552878515305725)"></circle><circle r="5" cx="105" cy="65" fill="#4c4e52" transform="matrix(0.45737743135936365,0,0,0.45737743135936365,56.975369707266815,35.27046696164136)"></circle><circle r="5" cx="105" cy="75" fill="#4c4e52" transform="matrix(0.4463403358055788,0,0,0.4463403358055788,58.134264740414224,41.52447481458159)"></circle><circle r="5" cx="105" cy="85" fill="#4c4e52" transform="matrix(0.42616950370105666,0,0,0.42616950370105666,60.25220211138905,48.77559218541018)"></circle><circle r="5" cx="105" cy="95" fill="#4c4e52" transform="matrix(0.40036602280789296,0,0,0.40036602280789296,62.96156760517124,56.96522783325017)"></circle><circle r="5" cx="105" cy="105" fill="#4c4e52" transform="matrix(0.3782523854300863,0,0,0.3782523854300863,65.28349952984094,65.28349952984094)"></circle><circle r="5" cx="105" cy="115" fill="#4c4e52" transform="matrix(0.3720867070873287,0,0,0.3720867070873287,65.93089575583048,72.2100286849572)"></circle><circle r="5" cx="105" cy="125" fill="#4c4e52" transform="matrix(0.39301626396011574,0,0,0.39301626396011574,63.73329228418785,75.87296700498553)"></circle><circle r="5" cx="105" cy="135" fill="#4c4e52" transform="matrix(0.44482644517339964,0,0,0.44482644517339964,58.293223256793034,74.94842990159106)"></circle><circle r="5" cx="105" cy="145" fill="#4c4e52" transform="matrix(0.5186385593838826,0,0,0.5186385593838826,50.54295126469233,69.79740888933702)"></circle><circle r="5" cx="105" cy="155" fill="#4c4e52" transform="matrix(0.5980534228377175,0,0,0.5980534228377175,42.204390602039666,62.30171946015379)"></circle><circle r="5" cx="105" cy="165" fill="#4c4e52" transform="matrix(0.6660612934007687,0,0,0.6660612934007687,35.06356419291929,55.09988658887316)"></circle><circle r="5" cx="105" cy="175" fill="#4c4e52" transform="matrix(0.7086743949046352,0,0,0.7086743949046352,30.589188535013307,50.981980891688835)"></circle><circle r="5" cx="105" cy="185" fill="#4c4e52" transform="matrix(0.7222287964443042,0,0,0.7222287964443042,29.16597637334806,51.38767265780373)"></circle><circle r="5" cx="105" cy="195" fill="#4c4e52" transform="matrix(0.7156297877184373,0,0,0.7156297877184373,29.858872289564076,55.45219139490473)"></circle><circle r="5" cx="115" cy="5" fill="#4c4e52" transform="matrix(0.4907001917910584,0,0,0.4907001917910584,58.569477944028286,2.546499041044708)"></circle><circle r="5" cx="115" cy="15" fill="#4c4e52" transform="matrix(0.4957527952010432,0,0,0.4957527952010432,57.988428551880034,7.563708071984352)"></circle><circle r="5" cx="115" cy="25" fill="#4c4e52" transform="matrix(0.4794121624908463,0,0,0.4794121624908463,59.867601313552676,13.014695937728844)"></circle><circle r="5" cx="115" cy="35" fill="#4c4e52" transform="matrix(0.4485822361173058,0,0,0.4485822361173058,63.41304284650983,19.2996217358943)"></circle><circle r="5" cx="115" cy="45" fill="#4c4e52" transform="matrix(0.41622951868127284,0,0,0.41622951868127284,67.13360535165361,26.269671659342723)"></circle><circle r="5" cx="115" cy="55" fill="#4c4e52" transform="matrix(0.3925080373292193,0,0,0.3925080373292193,69.86157570713978,33.41205794689294)"></circle><circle r="5" cx="115" cy="65" fill="#4c4e52" transform="matrix(0.37656929279745865,0,0,0.37656929279745865,71.69453132829226,40.52299596816519)"></circle><circle r="5" cx="115" cy="75" fill="#4c4e52" transform="matrix(0.3609457035479208,0,0,0.3609457035479208,73.4912440919891,47.92907223390594)"></circle><circle r="5" cx="115" cy="85" fill="#4c4e52" transform="matrix(0.3412061208757219,0,0,0.3412061208757219,75.76129609929198,55.997479725563636)"></circle><circle r="5" cx="115" cy="95" fill="#4c4e52" transform="matrix(0.3190749809049791,0,0,0.3190749809049791,78.30637719592741,64.68787681402699)"></circle><circle r="5" cx="115" cy="105" fill="#4c4e52" transform="matrix(0.30147713069443405,0,0,0.30147713069443405,80.33012997014009,73.34490127708443)"></circle><circle r="5" cx="115" cy="115" fill="#4c4e52" transform="matrix(0.2982133551714604,0,0,0.2982133551714604,80.70546415528204,80.70546415528204)"></circle><circle r="5" cx="115" cy="125" fill="#4c4e52" transform="matrix(0.31913952903514714,0,0,0.31913952903514714,78.29895416095808,85.10755887060661)"></circle><circle r="5" cx="115" cy="135" fill="#4c4e52" transform="matrix(0.3698903960288845,0,0,0.3698903960288845,72.46260445667828,85.06479653610059)"></circle><circle r="5" cx="115" cy="145" fill="#4c4e52" transform="matrix(0.44526646936121816,0,0,0.44526646936121816,63.79435602345991,80.43636194262336)"></circle><circle r="5" cx="115" cy="155" fill="#4c4e52" transform="matrix(0.5310019385416633,0,0,0.5310019385416633,53.934777067708715,72.69469952604219)"></circle><circle r="5" cx="115" cy="165" fill="#4c4e52" transform="matrix(0.6101614032669724,0,0,0.6101614032669724,44.83143862429817,64.32336846094955)"></circle><circle r="5" cx="115" cy="175" fill="#4c4e52" transform="matrix(0.6669521989425327,0,0,0.6669521989425327,38.30049712160874,58.28336518505678)"></circle><circle r="5" cx="115" cy="185" fill="#4c4e52" transform="matrix(0.6939663469116661,0,0,0.6939663469116661,35.193870105158396,56.61622582134177)"></circle><circle r="5" cx="115" cy="195" fill="#4c4e52" transform="matrix(0.6969267855970498,0,0,0.6969267855970498,34.85341965633927,59.0992768085753)"></circle><circle r="5" cx="125" cy="5" fill="#4c4e52" transform="matrix(0.5439752875268293,0,0,0.5439752875268293,57.00308905914633,2.280123562365853)"></circle><circle r="5" cx="125" cy="15" fill="#4c4e52" transform="matrix(0.5284943577591144,0,0,0.5284943577591144,58.93820528011071,7.0725846336132845)"></circle><circle r="5" cx="125" cy="25" fill="#4c4e52" transform="matrix(0.4871215857251458,0,0,0.4871215857251458,64.10980178435678,12.821960356871354)"></circle><circle r="5" cx="125" cy="35" fill="#4c4e52" transform="matrix(0.4317723675977465,0,0,0.4317723675977465,71.02845405028168,19.88796713407887)"></circle><circle r="5" cx="125" cy="45" fill="#4c4e52" transform="matrix(0.3782774225847682,0,0,0.3782774225847682,77.71532217690398,27.977515983685432)"></circle><circle r="5" cx="125" cy="55" fill="#4c4e52" transform="matrix(0.3380626898943405,0,0,0.3380626898943405,82.74216376320743,36.406552055811275)"></circle><circle r="5" cx="125" cy="65" fill="#4c4e52" transform="matrix(0.31174932290827895,0,0,0.31174932290827895,86.03133463646513,44.73629401096187)"></circle><circle r="5" cx="125" cy="75" fill="#4c4e52" transform="matrix(0.2917011342464391,0,0,0.2917011342464391,88.53735821919511,53.12241493151707)"></circle><circle r="5" cx="125" cy="85" fill="#4c4e52" transform="matrix(0.2720967728242889,0,0,0.2720967728242889,90.98790339696389,61.87177430993545)"></circle><circle r="5" cx="125" cy="95" fill="#4c4e52" transform="matrix(0.2523662003541117,0,0,0.2523662003541117,93.45422495573604,71.02521096635938)"></circle><circle r="5" cx="125" cy="105" fill="#4c4e52" transform="matrix(0.23662131846586373,0,0,0.23662131846586373,95.42233519176703,80.15476156108431)"></circle><circle r="5" cx="125" cy="115" fill="#4c4e52" transform="matrix(0.2320078374162778,0,0,0.2320078374162778,95.99902032296526,88.31909869712806)"></circle><circle r="5" cx="125" cy="125" fill="#4c4e52" transform="matrix(0.2470729635131976,0,0,0.2470729635131976,94.1158795608503,94.1158795608503)"></circle><circle r="5" cx="125" cy="135" fill="#4c4e52" transform="matrix(0.2894011781992594,0,0,0.2894011781992594,88.82485272509257,95.93084094309998)"></circle><circle r="5" cx="125" cy="145" fill="#4c4e52" transform="matrix(0.35954842554552613,0,0,0.35954842554552613,80.05644680680923,92.86547829589871)"></circle><circle r="5" cx="125" cy="155" fill="#4c4e52" transform="matrix(0.44584054180029403,0,0,0.44584054180029403,69.26993227496325,85.89471602095442)"></circle><circle r="5" cx="125" cy="165" fill="#4c4e52" transform="matrix(0.5312928250025246,0,0,0.5312928250025246,58.58839687468442,77.33668387458344)"></circle><circle r="5" cx="125" cy="175" fill="#4c4e52" transform="matrix(0.5990932800727685,0,0,0.5990932800727685,50.11333999090394,70.15867598726551)"></circle><circle r="5" cx="125" cy="185" fill="#4c4e52" transform="matrix(0.6384455213053655,0,0,0.6384455213053655,45.19430983682932,66.88757855850739)"></circle><circle r="5" cx="125" cy="195" fill="#4c4e52" transform="matrix(0.6510693811751089,0,0,0.6510693811751089,43.61632735311139,68.04147067085376)"></circle><circle r="5" cx="135" cy="5" fill="#4c4e52" transform="matrix(0.5870974295564813,0,0,0.5870974295564813,55.74184700987503,2.064512852217594)"></circle><circle r="5" cx="135" cy="15" fill="#4c4e52" transform="matrix(0.5563817253111453,0,0,0.5563817253111453,59.88846708299539,6.65427412033282)"></circle><circle r="5" cx="135" cy="25" fill="#4c4e52" transform="matrix(0.4980423934825665,0,0,0.4980423934825665,67.76427687985353,12.548940162935837)"></circle><circle r="5" cx="135" cy="35" fill="#4c4e52" transform="matrix(0.42599097270471487,0,0,0.42599097270471487,77.4912186848635,20.09031595533498)"></circle><circle r="5" cx="135" cy="45" fill="#4c4e52" transform="matrix(0.3565273704972849,0,0,0.3565273704972849,86.86880498286655,28.95626832762218)"></circle><circle r="5" cx="135" cy="55" fill="#4c4e52" transform="matrix(0.3033394705075831,0,0,0.3033394705075831,94.0491714814763,38.316329122082934)"></circle><circle r="5" cx="135" cy="65" fill="#4c4e52" transform="matrix(0.26928479985889836,0,0,0.26928479985889836,98.64655201904873,47.49648800917161)"></circle><circle r="5" cx="135" cy="75" fill="#4c4e52" transform="matrix(0.24662745622195212,0,0,0.24662745622195212,101.70529341003646,56.502940783353594)"></circle><circle r="5" cx="135" cy="85" fill="#4c4e52" transform="matrix(0.22773000753400038,0,0,0.22773000753400038,104.25644898290994,65.64294935960997)"></circle><circle r="5" cx="135" cy="95" fill="#4c4e52" transform="matrix(0.20932080435093606,0,0,0.20932080435093606,106.74169141262362,75.11452358666108)"></circle><circle r="5" cx="135" cy="105" fill="#4c4e52" transform="matrix(0.1926725480868419,0,0,0.1926725480868419,108.98920600827634,84.76938245088161)"></circle><circle r="5" cx="135" cy="115" fill="#4c4e52" transform="matrix(0.1828404554474205,0,0,0.1828404554474205,110.31653851459824,93.97334762354664)"></circle><circle r="5" cx="135" cy="125" fill="#4c4e52" transform="matrix(0.18815627066424812,0,0,0.18815627066424812,109.59890346032651,101.48046616696898)"></circle><circle r="5" cx="135" cy="135" fill="#4c4e52" transform="matrix(0.21838109210071346,0,0,0.21838109210071346,105.51855256640368,105.51855256640368)"></circle><circle r="5" cx="135" cy="145" fill="#4c4e52" transform="matrix(0.27827753805140876,0,0,0.27827753805140876,97.43253236305982,104.64975698254574)"></circle><circle r="5" cx="135" cy="155" fill="#4c4e52" transform="matrix(0.3593063048983992,0,0,0.3593063048983992,86.4936488387161,99.30752274074811)"></circle><circle r="5" cx="135" cy="165" fill="#4c4e52" transform="matrix(0.445315245975089,0,0,0.445315245975089,74.88244179336299,91.52298441411031)"></circle><circle r="5" cx="135" cy="175" fill="#4c4e52" transform="matrix(0.5193720958973087,0,0,0.5193720958973087,64.88476705386333,84.10988321797097)"></circle><circle r="5" cx="135" cy="185" fill="#4c4e52" transform="matrix(0.5674139128143589,0,0,0.5674139128143589,58.39912177006154,80.0284261293436)"></circle><circle r="5" cx="135" cy="195" fill="#4c4e52" transform="matrix(0.5848686940725666,0,0,0.5848686940725666,56.04272630020351,80.95060465584952)"></circle><circle r="5" cx="145" cy="5" fill="#4c4e52" transform="matrix(0.6150185224034039,0,0,0.6150185224034039,55.82231425150643,1.9249073879829801)"></circle><circle r="5" cx="145" cy="15" fill="#4c4e52" transform="matrix(0.5745284877289485,0,0,0.5745284877289485,61.69336927930247,6.382072684065772)"></circle><circle r="5" cx="145" cy="25" fill="#4c4e52" transform="matrix(0.5063391756864606,0,0,0.5063391756864606,71.58081952546321,12.341520607838486)"></circle><circle r="5" cx="145" cy="35" fill="#4c4e52" transform="matrix(0.42431041195816366,0,0,0.42431041195816366,83.47499026606627,20.14913558146427)"></circle><circle r="5" cx="145" cy="45" fill="#4c4e52" transform="matrix(0.3449382041941247,0,0,0.3449382041941247,94.98396039185192,29.477780811264388)"></circle><circle r="5" cx="145" cy="55" fill="#4c4e52" transform="matrix(0.28370945098988576,0,0,0.28370945098988576,103.86212960646657,39.395980195556284)"></circle><circle r="5" cx="145" cy="65" fill="#4c4e52" transform="matrix(0.24592391061725472,0,0,0.24592391061725472,109.34103296049807,49.01494580987844)"></circle><circle r="5" cx="145" cy="75" fill="#4c4e52" transform="matrix(0.22388339852946434,0,0,0.22388339852946434,112.53690721322766,58.208745110290174)"></circle><circle r="5" cx="145" cy="85" fill="#4c4e52" transform="matrix(0.20784484778180654,0,0,0.20784484778180654,114.86249707163805,67.33318793854644)"></circle><circle r="5" cx="145" cy="95" fill="#4c4e52" transform="matrix(0.19171334469507992,0,0,0.19171334469507992,117.2015650192134,76.7872322539674)"></circle><circle r="5" cx="145" cy="105" fill="#4c4e52" transform="matrix(0.17430404705937114,0,0,0.17430404705937114,119.72591317639119,86.69807505876602)"></circle><circle r="5" cx="145" cy="115" fill="#4c4e52" transform="matrix(0.15923788313044906,0,0,0.15923788313044906,121.9105069460849,96.68764343999835)"></circle><circle r="5" cx="145" cy="125" fill="#4c4e52" transform="matrix(0.1546183856525919,0,0,0.1546183856525919,122.58033408037417,105.67270179342601)"></circle><circle r="5" cx="145" cy="135" fill="#4c4e52" transform="matrix(0.1714393125165185,0,0,0.1714393125165185,120.14129968510481,111.85569281027)"></circle><circle r="5" cx="145" cy="145" fill="#4c4e52" transform="matrix(0.2177129025148537,0,0,0.2177129025148537,113.43162913534621,113.43162913534621)"></circle><circle r="5" cx="145" cy="155" fill="#4c4e52" transform="matrix(0.28845742356690574,0,0,0.28845742356690574,103.17367358279867,110.28909934712962)"></circle><circle r="5" cx="145" cy="165" fill="#4c4e52" transform="matrix(0.36917433794767013,0,0,0.36917433794767013,91.46972099758783,104.08623423863443)"></circle><circle r="5" cx="145" cy="175" fill="#4c4e52" transform="matrix(0.44210094951115775,0,0,0.44210094951115775,80.89536232088213,97.6323338355474)"></circle><circle r="5" cx="145" cy="185" fill="#4c4e52" transform="matrix(0.4894298035999946,0,0,0.4894298035999946,74.03267847800078,94.455486334001)"></circle><circle r="5" cx="145" cy="195" fill="#4c4e52" transform="matrix(0.5033090280573647,0,0,0.5033090280573647,72.02019093168212,96.8547395288139)"></circle><circle r="5" cx="155" cy="5" fill="#4c4e52" transform="matrix(0.6265604393978103,0,0,0.6265604393978103,57.88313189333941,1.8671978030109488)"></circle><circle r="5" cx="155" cy="15" fill="#4c4e52" transform="matrix(0.582713185890461,0,0,0.582713185890461,64.67945618697856,6.259302211643085)"></circle><circle r="5" cx="155" cy="25" fill="#4c4e52" transform="matrix(0.5103235857114945,0,0,0.5103235857114945,75.89984421471836,12.241910357212637)"></circle><circle r="5" cx="155" cy="35" fill="#4c4e52" transform="matrix(0.4235515774668517,0,0,0.4235515774668517,89.34950549263799,20.17569478866019)"></circle><circle r="5" cx="155" cy="45" fill="#4c4e52" transform="matrix(0.3395507952158542,0,0,0.3395507952158542,102.3696267415426,29.72021421528656)"></circle><circle r="5" cx="155" cy="55" fill="#4c4e52" transform="matrix(0.27472039348692284,0,0,0.27472039348692284,112.41833900952696,39.890378358219245)"></circle><circle r="5" cx="155" cy="65" fill="#4c4e52" transform="matrix(0.23699544603079606,0,0,0.23699544603079606,118.26570586522661,49.59529600799826)"></circle><circle r="5" cx="155" cy="75" fill="#4c4e52" transform="matrix(0.21946951430267012,0,0,0.21946951430267012,120.98222528308614,58.539786427299745)"></circle><circle r="5" cx="155" cy="85" fill="#4c4e52" transform="matrix(0.21043570227892025,0,0,0.21043570227892025,122.38246614676737,67.11296530629178)"></circle><circle r="5" cx="155" cy="95" fill="#4c4e52" transform="matrix(0.2006489009224823,0,0,0.2006489009224823,123.89942035701525,75.93835441236418)"></circle><circle r="5" cx="155" cy="105" fill="#4c4e52" transform="matrix(0.18584461884768186,0,0,0.18584461884768186,126.19408407860931,85.4863150209934)"></circle><circle r="5" cx="155" cy="115" fill="#4c4e52" transform="matrix(0.16773488006280657,0,0,0.16773488006280657,129.001093590265,95.71048879277724)"></circle><circle r="5" cx="155" cy="125" fill="#4c4e52" transform="matrix(0.15418068218112113,0,0,0.15418068218112113,131.10199426192622,105.72741472735986)"></circle><circle r="5" cx="155" cy="135" fill="#4c4e52" transform="matrix(0.15758535309591917,0,0,0.15758535309591917,130.57427027013253,113.72597733205092)"></circle><circle r="5" cx="155" cy="145" fill="#4c4e52" transform="matrix(0.18879601905068366,0,0,0.18879601905068366,125.73661704714404,117.62457723765087)"></circle><circle r="5" cx="155" cy="155" fill="#4c4e52" transform="matrix(0.24601686107301962,0,0,0.24601686107301962,116.86738653368195,116.86738653368195)"></circle><circle r="5" cx="155" cy="165" fill="#4c4e52" transform="matrix(0.315532579298185,0,0,0.315532579298185,106.09245020878132,112.93712441579947)"></circle><circle r="5" cx="155" cy="175" fill="#4c4e52" transform="matrix(0.3767085057442679,0,0,0.3767085057442679,96.61018160963847,109.07601149475312)"></circle><circle r="5" cx="155" cy="185" fill="#4c4e52" transform="matrix(0.4120086987019171,0,0,0.4120086987019171,91.13865170120286,108.77839074014534)"></circle><circle r="5" cx="155" cy="195" fill="#4c4e52" transform="matrix(0.41500864002766297,0,0,0.41500864002766297,90.67366079571224,114.07331519460573)"></circle><circle r="5" cx="165" cy="5" fill="#4c4e52" transform="matrix(0.6229458239464305,0,0,0.6229458239464305,62.21393904883897,1.8852708802678473)"></circle><circle r="5" cx="165" cy="15" fill="#4c4e52" transform="matrix(0.5809041197929163,0,0,0.5809041197929163,69.1508202341688,6.286438203106254)"></circle><circle r="5" cx="165" cy="25" fill="#4c4e52" transform="matrix(0.5094396023505636,0,0,0.5094396023505636,80.94246561215701,12.264009941235908)"></circle><circle r="5" cx="165" cy="35" fill="#4c4e52" transform="matrix(0.42371991688132793,0,0,0.42371991688132793,95.0862137145809,20.169802909153525)"></circle><circle r="5" cx="165" cy="45" fill="#4c4e52" transform="matrix(0.34074615458141755,0,0,0.34074615458141755,108.77688449406611,29.66642304383621)"></circle><circle r="5" cx="165" cy="55" fill="#4c4e52" transform="matrix(0.2768308127933883,0,0,0.2768308127933883,119.32291588909094,39.77430529636364)"></circle><circle r="5" cx="165" cy="65" fill="#4c4e52" transform="matrix(0.24233735010767055,0,0,0.24233735010767055,125.01433723223437,49.24807224300142)"></circle><circle r="5" cx="165" cy="75" fill="#4c4e52" transform="matrix(0.2332112050380893,0,0,0.2332112050380893,126.52015116871527,57.5091596221433)"></circle><circle r="5" cx="165" cy="85" fill="#4c4e52" transform="matrix(0.23574431130281837,0,0,0.23574431130281837,126.10218863503496,64.96173353926044)"></circle><circle r="5" cx="165" cy="95" fill="#4c4e52" transform="matrix(0.2364492547147583,0,0,0.2364492547147583,125.98587297206488,72.53732080209797)"></circle><circle r="5" cx="165" cy="105" fill="#4c4e52" transform="matrix(0.22726695221745283,0,0,0.22726695221745283,127.50095288412028,81.13697001716746)"></circle><circle r="5" cx="165" cy="115" fill="#4c4e52" transform="matrix(0.2079189033491819,0,0,0.2079189033491819,130.69338094738498,91.08932611484408)"></circle><circle r="5" cx="165" cy="125" fill="#4c4e52" transform="matrix(0.1863854727447449,0,0,0.1863854727447449,134.2463969971171,101.70181590690689)"></circle><circle r="5" cx="165" cy="135" fill="#4c4e52" transform="matrix(0.17687295381493795,0,0,0.17687295381493795,135.81596262053523,111.12215123498338)"></circle><circle r="5" cx="165" cy="145" fill="#4c4e52" transform="matrix(0.19285869998970467,0,0,0.19285869998970467,133.17831450169874,117.03548850149282)"></circle><circle r="5" cx="165" cy="155" fill="#4c4e52" transform="matrix(0.23484906135859318,0,0,0.23484906135859318,126.24990487583213,118.59839548941807)"></circle><circle r="5" cx="165" cy="165" fill="#4c4e52" transform="matrix(0.28745644542233406,0,0,0.28745644542233406,117.56968650531488,117.56968650531488)"></circle><circle r="5" cx="165" cy="175" fill="#4c4e52" transform="matrix(0.32887941084419436,0,0,0.32887941084419436,110.73489721070793,117.446103102266)"></circle><circle r="5" cx="165" cy="185" fill="#4c4e52" transform="matrix(0.3443351516578964,0,0,0.3443351516578964,108.18469997644709,121.29799694328916)"></circle><circle r="5" cx="165" cy="195" fill="#4c4e52" transform="matrix(0.3318421405623755,0,0,0.3318421405623755,110.24604680720805,130.2907825903368)"></circle><circle r="5" cx="175" cy="5" fill="#4c4e52" transform="matrix(0.6059482292377361,0,0,0.6059482292377361,68.9590598833962,1.9702588538113197)"></circle><circle r="5" cx="175" cy="15" fill="#4c4e52" transform="matrix(0.5694191871657222,0,0,0.5694191871657222,75.35164224599862,6.458712192514168)"></circle><circle r="5" cx="175" cy="25" fill="#4c4e52" transform="matrix(0.503820996472862,0,0,0.503820996472862,86.83132561724914,12.40447508817845)"></circle><circle r="5" cx="175" cy="35" fill="#4c4e52" transform="matrix(0.42479020089324493,0,0,0.42479020089324493,100.66171484368213,20.132342968736427)"></circle><circle r="5" cx="175" cy="45" fill="#4c4e52" transform="matrix(0.34835057501154665,0,0,0.34835057501154665,114.03864937297934,29.324224124480402)"></circle><circle r="5" cx="175" cy="55" fill="#4c4e52" transform="matrix(0.29042136814900427,0,0,0.29042136814900427,124.17626057392425,39.02682475180477)"></circle><circle r="5" cx="175" cy="65" fill="#4c4e52" transform="matrix(0.2630447664793122,0,0,0.2630447664793122,128.96716586612035,47.90209017884471)"></circle><circle r="5" cx="175" cy="75" fill="#4c4e52" transform="matrix(0.26517443433764404,0,0,0.26517443433764404,128.5944739909123,55.1119174246767)"></circle><circle r="5" cx="175" cy="85" fill="#4c4e52" transform="matrix(0.28143509004398587,0,0,0.28143509004398587,125.74885924230247,61.078017346261205)"></circle><circle r="5" cx="175" cy="95" fill="#4c4e52" transform="matrix(0.29410982847508166,0,0,0.29410982847508166,123.53078001686072,67.05956629486724)"></circle><circle r="5" cx="175" cy="105" fill="#4c4e52" transform="matrix(0.2914098179621887,0,0,0.2914098179621887,124.00328185661698,74.40196911397018)"></circle><circle r="5" cx="175" cy="115" fill="#4c4e52" transform="matrix(0.27132307690097957,0,0,0.27132307690097957,127.51846154232857,83.79784615638735)"></circle><circle r="5" cx="175" cy="125" fill="#4c4e52" transform="matrix(0.2423361023257277,0,0,0.2423361023257277,132.59118209299766,94.70798720928404)"></circle><circle r="5" cx="175" cy="135" fill="#4c4e52" transform="matrix(0.22069124482506347,0,0,0.22069124482506347,136.37903215561388,105.20668194861643)"></circle><circle r="5" cx="175" cy="145" fill="#4c4e52" transform="matrix(0.22206815058407314,0,0,0.22206815058407314,136.1380736477872,112.80011816530939)"></circle><circle r="5" cx="175" cy="155" fill="#4c4e52" transform="matrix(0.24737149540864084,0,0,0.24737149540864084,131.70998830348785,116.65741821166067)"></circle><circle r="5" cx="175" cy="165" fill="#4c4e52" transform="matrix(0.2796704593251985,0,0,0.2796704593251985,126.05766961809026,118.85437421134225)"></circle><circle r="5" cx="175" cy="175" fill="#4c4e52" transform="matrix(0.2989158796539439,0,0,0.2989158796539439,122.68972106055982,122.68972106055982)"></circle><circle r="5" cx="175" cy="185" fill="#4c4e52" transform="matrix(0.29379372117813995,0,0,0.29379372117813995,123.5860987938255,130.6481615820441)"></circle><circle r="5" cx="175" cy="195" fill="#4c4e52" transform="matrix(0.26586885964014806,0,0,0.26586885964014806,128.4729495629741,143.15557237017111)"></circle><circle r="5" cx="185" cy="5" fill="#4c4e52" transform="matrix(0.5816267200927447,0,0,0.5816267200927447,77.39905678284222,2.0918663995362765)"></circle><circle r="5" cx="185" cy="15" fill="#4c4e52" transform="matrix(0.5522710183449233,0,0,0.5522710183449233,82.82986160618918,6.71593472482615)"></circle><circle r="5" cx="185" cy="25" fill="#4c4e52" transform="matrix(0.49554121294453796,0,0,0.49554121294453796,93.32487560526047,12.611469676386552)"></circle><circle r="5" cx="185" cy="35" fill="#4c4e52" transform="matrix(0.4269906885137792,0,0,0.4269906885137792,106.00672262495085,20.055325902017728)"></circle><circle r="5" cx="185" cy="45" fill="#4c4e52" transform="matrix(0.3618128100434853,0,0,0.3618128100434853,118.06463014195522,28.718423548043162)"></circle><circle r="5" cx="185" cy="55" fill="#4c4e52" transform="matrix(0.3160804660202673,0,0,0.3160804660202673,126.52511378625056,37.6155743688853)"></circle><circle r="5" cx="185" cy="65" fill="#4c4e52" transform="matrix(0.3002314698921067,0,0,0.3002314698921067,129.45717806996026,45.48495445701306)"></circle><circle r="5" cx="185" cy="75" fill="#4c4e52" transform="matrix(0.3137274808726355,0,0,0.3137274808726355,126.96041603856243,51.470438934552334)"></circle><circle r="5" cx="185" cy="85" fill="#4c4e52" transform="matrix(0.34170806948011634,0,0,0.34170806948011634,121.78400714617848,55.95481409419011)"></circle><circle r="5" cx="185" cy="95" fill="#4c4e52" transform="matrix(0.36380277504683656,0,0,0.36380277504683656,117.69648661633524,60.43873637055053)"></circle><circle r="5" cx="185" cy="105" fill="#4c4e52" transform="matrix(0.36542982337739693,0,0,0.36542982337739693,117.39548267518157,66.62986854537331)"></circle><circle r="5" cx="185" cy="115" fill="#4c4e52" transform="matrix(0.343418062276315,0,0,0.343418062276315,121.46765847888173,75.50692283822377)"></circle><circle r="5" cx="185" cy="125" fill="#4c4e52" transform="matrix(0.3070380912207954,0,0,0.3070380912207954,128.19795312415286,86.62023859740057)"></circle><circle r="5" cx="185" cy="135" fill="#4c4e52" transform="matrix(0.27438735588612134,0,0,0.27438735588612134,134.23833916106756,97.95770695537362)"></circle><circle r="5" cx="185" cy="145" fill="#4c4e52" transform="matrix(0.26227455212796263,0,0,0.26227455212796263,136.47920785632692,106.97018994144543)"></circle><circle r="5" cx="185" cy="155" fill="#4c4e52" transform="matrix(0.27048742689261707,0,0,0.27048742689261707,134.95982602486583,113.07444883164436)"></circle><circle r="5" cx="185" cy="165" fill="#4c4e52" transform="matrix(0.28278088301941623,0,0,0.28278088301941623,132.685536641408,118.34115430179632)"></circle><circle r="5" cx="185" cy="175" fill="#4c4e52" transform="matrix(0.28254115254215445,0,0,0.28254115254215445,132.72988677970142,125.55529830512297)"></circle><circle r="5" cx="185" cy="185" fill="#4c4e52" transform="matrix(0.26191109708826377,0,0,0.26191109708826377,136.5464470386712,136.5464470386712)"></circle><circle r="5" cx="185" cy="195" fill="#4c4e52" transform="matrix(0.22457383806146858,0,0,0.22457383806146858,143.45383995862832,151.2081015780136)"></circle><circle r="5" cx="195" cy="5" fill="#4c4e52" transform="matrix(0.5641302036640711,0,0,0.5641302036640711,84.99461028550614,2.1793489816796447)"></circle><circle r="5" cx="195" cy="15" fill="#4c4e52" transform="matrix(0.5412298287529129,0,0,0.5412298287529129,89.46018339318198,6.881552568706306)"></circle><circle r="5" cx="195" cy="25" fill="#4c4e52" transform="matrix(0.4932086699943721,0,0,0.4932086699943721,98.82430935109744,12.669783250140698)"></circle><circle r="5" cx="195" cy="35" fill="#4c4e52" transform="matrix(0.435011394340557,0,0,0.435011394340557,110.17277810359138,19.774601198080504)"></circle><circle r="5" cx="195" cy="45" fill="#4c4e52" transform="matrix(0.3830481780087058,0,0,0.3830481780087058,120.30560528830237,27.76283198960824)"></circle><circle r="5" cx="195" cy="55" fill="#4c4e52" transform="matrix(0.3532176131234722,0,0,0.3532176131234722,126.12256544092291,35.57303127820903)"></circle><circle r="5" cx="195" cy="65" fill="#4c4e52" transform="matrix(0.3521520795205273,0,0,0.3521520795205273,126.33034449349718,42.110114831165724)"></circle><circle r="5" cx="195" cy="75" fill="#4c4e52" transform="matrix(0.37533505670076706,0,0,0.37533505670076706,121.80966394335043,46.849870747442466)"></circle><circle r="5" cx="195" cy="85" fill="#4c4e52" transform="matrix(0.40925822635384074,0,0,0.40925822635384074,115.19464586100105,50.21305075992354)"></circle><circle r="5" cx="195" cy="95" fill="#4c4e52" transform="matrix(0.43427665093545303,0,0,0.43427665093545303,110.31605306758667,53.74371816113196)"></circle><circle r="5" cx="195" cy="105" fill="#4c4e52" transform="matrix(0.435043881988983,0,0,0.435043881988983,110.1664430121483,59.32039239115678)"></circle><circle r="5" cx="195" cy="115" fill="#4c4e52" transform="matrix(0.40822841142197125,0,0,0.40822841142197125,115.39545977271561,68.0537326864733)"></circle><circle r="5" cx="195" cy="125" fill="#4c4e52" transform="matrix(0.3640412614451587,0,0,0.3640412614451587,124.01195401819406,79.49484231935517)"></circle><circle r="5" cx="195" cy="135" fill="#4c4e52" transform="matrix(0.32169918211931336,0,0,0.32169918211931336,132.2686594867339,91.5706104138927)"></circle><circle r="5" cx="195" cy="145" fill="#4c4e52" transform="matrix(0.2974682492168429,0,0,0.2974682492168429,136.99369140271563,101.86710386355779)"></circle><circle r="5" cx="195" cy="155" fill="#4c4e52" transform="matrix(0.2902822304898812,0,0,0.2902822304898812,138.39496505447318,110.00625427406841)"></circle><circle r="5" cx="195" cy="165" fill="#4c4e52" transform="matrix(0.286424268836614,0,0,0.286424268836614,139.14726757686026,117.7399956419587)"></circle><circle r="5" cx="195" cy="175" fill="#4c4e52" transform="matrix(0.2731898314123835,0,0,0.2731898314123835,141.72798287458522,127.19177950283289)"></circle><circle r="5" cx="195" cy="185" fill="#4c4e52" transform="matrix(0.2456057879091616,0,0,0.2456057879091616,147.1068713577135,139.5629292368051)"></circle><circle r="5" cx="195" cy="195" fill="#4c4e52" transform="matrix(0.20813183382126427,0,0,0.20813183382126427,154.41429240485348,154.41429240485348)"></circle></svg>